<mxfile host="app.diagrams.net" modified="2023-11-23T20:49:43.753Z" agent="Mozilla/5.0 (X11; Ubuntu; Linux x86_64; rv:120.0) Gecko/20100101 Firefox/120.0" etag="61Jbc7lOUEzZCniis8h5" version="22.1.3" type="device">
  <diagram name="Page-1" id="TKn5FPeN9TJqUHvjzyVv">
    <mxGraphModel dx="705" dy="584" grid="1" gridSize="10" guides="1" tooltips="1" connect="1" arrows="1" fold="1" page="1" pageScale="1" pageWidth="850" pageHeight="1100" math="0" shadow="0">
      <root>
        <mxCell id="0" />
        <mxCell id="1" parent="0" />
        <mxCell id="rwGKvkM6uw_88Vz11CZv-10" style="edgeStyle=orthogonalEdgeStyle;rounded=0;orthogonalLoop=1;jettySize=auto;html=1;entryX=0.5;entryY=1;entryDx=0;entryDy=0;endArrow=none;endFill=0;" edge="1" parent="1" source="rwGKvkM6uw_88Vz11CZv-1" target="rwGKvkM6uw_88Vz11CZv-4">
          <mxGeometry relative="1" as="geometry" />
        </mxCell>
        <mxCell id="rwGKvkM6uw_88Vz11CZv-1" value="" style="image;html=1;image=img/lib/clip_art/networking/Wireless_Router_N_128x128.png" vertex="1" parent="1">
          <mxGeometry x="385.34" y="320" width="80" height="80" as="geometry" />
        </mxCell>
        <mxCell id="rwGKvkM6uw_88Vz11CZv-5" value="" style="group" vertex="1" connectable="0" parent="1">
          <mxGeometry x="240.00000000000003" y="190" width="94.67000000000002" height="83" as="geometry" />
        </mxCell>
        <mxCell id="rwGKvkM6uw_88Vz11CZv-4" value="" style="shape=image;verticalLabelPosition=bottom;labelBackgroundColor=default;verticalAlign=top;aspect=fixed;imageAspect=0;image=data:image/jpeg,/9j/4AAQSkZJRgABAQAAAQABAAD/2wCEAAoHCBYTExQVFRQYGBcYGSAaGBgaGxsiIBsgIRgZICIcGiMiIiwjGxwoHSAcJDcmKC0vMjIyHCI6PTgxPC0xMi8BCwsLDw4PHRERHTMoIygxMTExMS8xMTMxMTExMzExMTEzLzMxMTMxMTEzMTExMzExMTExMTExMTExMTExMTExMf/AABEIALcBEwMBIgACEQEDEQH/xAAcAAEAAwADAQEAAAAAAAAAAAAABAUGAQMHAgj/xAA+EAACAQMDAgQEAwYGAgEFAQABAhEAAyEEEjEFQRMiUWEGMkJxUoGRI2JyobHRBxQzwfDxQ5LhRFOCorIV/8QAGQEBAQEBAQEAAAAAAAAAAAAAAAIBAwQF/8QAJxEAAgICAgEDBAMBAAAAAAAAAAECEQMhEjFBBCJRYXGRwaGx0RP/2gAMAwEAAhEDEQA/APZqUpQClKUApSlAKUpQClKUApSvh3ABJIAHJNAcihNV6dRW5PhkEAxP9v71WfEWtKaW6xb5QG4gwGU4rzy9TjUuN7CTatLRoFuglh+EwfvAP9CK7KySfFFm4+1WMXFW/aJDeZEY7/4cW2gGJ/OtAuphrkmdrqoGPqVI/m3P9q7pm0TqVwDXNaYKUpQClKUApSlAKUpQClKUApSlAKUpQClKUApSlAKUpQClKUApSlAKUpQHFQ+o9RtadC91wo7ep9lHJP2rP9b+L1RvB0qePeOAFyoP5fNH5AdyKz3/APnl38XW3DdudrSMdic4ZljcePKkKCDlqxtLs1KzU6f4v09y2WXduH0Eeb2PcR+eKznV+svfkFoXsi8fn6106O1atL5B2yzGWP7x7R9hFV/UOtLlbYBP4jx+Xr/So5OT0fLzzy5MrxxWl+PyWel64NMBtWFgSC0kt3K4wD6dqzXx/wDEjahLLhTsTfvEmAWCqC0CPUA+/bvEdyxJJk+tXvwbs/zHngqVYEGIIK8Gaz/lFPl5Po44yjFRsynS+sbWtsXLLbsXLQA5Xel4Cfs1ye9bT4f6+6WtJaJDB7FxySxLKbNy+6R+SgQe0VXfEn+H0ot/QMQz7ptboBgn/TPbH0n8o4rF6LqT27hUjwrltWQ7p+pXVgQR5cMR+dX2dLrs970HV0u27t60wKNtdGjtAQyD3DI1XS3QWZe6xP51+e9B1G6rW1W648rAAMQAJZoI7jcSYPqK9D6L8ZLfR/F227joQqgmGZATAxiVjBPOKXRh6LSof+bEsZGxba3PeDvz9oX+tS0aQD61Rh9UpSgFKUoBSlKAUpSgFKUoBSlKAUpSgFKUoBSlKAUpSgFKVnPi7rj6S0rIgLOSAzfKsCc+p9BPY+lAWXVerWtKm+64UdhyzeyjvWM1nUNT1AYJ0+lPB+u6P3RguCPsmeWiKqei7tQ739QjXDjw3ufJOZIX6wMR9I9DV3rdYqea43PHJJgEwoGTABMAcA+lRKVaRSXk40umt2lKWk2g4ZiZd/42gY/dED2qBquoLlbY3nuZAUZ9eCcMB23DaSpIqPqb1y7I2kLH+mBuZhH1Rjacc4ZXBGRXPghfqGMkTMGAPMTlmgLJPccTUcfLOOXMoLRBKSWtujsh4uqSWETnaYDKfw47cd6/WaFrcEwyN8txflb29m/dMEVo9MVbcS+1UiSMmSYAGRmfcRBruvqFMEqQ8gyPI5U5W6vIcEjIyJkczVRbR58WZ17kYndUrQ2LlwnZgD5nJhVB/Eff05PYGrK7021vJC3TA3G1iR5gPnPFuT8xHH/tUu9b2NbP4V8ttR5FY+i/Uw/G0k/zNuSO8ssYqzvXWXWsqlq4QFlQ5WGYQJNoH5VI4czPYciqjW/DQ1KwykYO1x8yx6k/OfVYgTyJxxb1k3Cgfzrlhnv3BPNWei1bDg+p7/8AYNTtHmlnk5bPP9dpbujc+JJtqIRge8HHqpIPBH2kV36DVAmwAQArEmCJhivI7DFb3XOt9Nu0DBDSAZEEx6R7EZMcViNd8OsrNc00hwJ8MxH/AOBPP8LfqeK27O0M6emX3w58V3LaItws6XFeySzZUHYQw5+UsQF9DXpfR+t27+x0ZW/Y5UEeVxlkPofl/l7V4Lo9WRcto4IdG3OpgCZUEH0Plq36Z1W5YCvbuFW8X5RGVIkj0IaADQ9Cdnvmm1AYJJG503QPss/lkfrUisB8N/FCXLlpG8nhm5ZJZhBBKlG7Rm2U9zHrWt0Gs3JZ7l5knkEAk/nNEwWdK67dwNMGYJH5gwf512VQFKUoBSlKAUpSgFKUoBSlKAUpSgFKUoDildN+8EEk/Ydz7AdzWY6j8RLLqWCIgJcnBn2DLDxjy4ntNS5JGXui16t1pbKMVG9hgAcT6E+vtXm3XupPqUueJcXcZVLW4CD2BU8cemf1qVpOppcuAhjcu8296EbzJIBgHJPAg+ntVL8W6JGuPd8VVuPtPhRuMEcDb5QRjk4/eIqbtnGnJ3LXwv2WFnWXLVuwqx/oqNrtHmAWQgg7mHE/LP5ipK2WLhp3Fjm4ZEANIIHzQDDCcISwEA1QavQLqba3LVwo9sKhDvIKjA58wcfYiOe0aQaVLYW0uoa4ygS55jAG4qSD7ETAGfxVmolSbadvo+dWxs+RYBgFok7weDPfH/O1WPRtPbIV3RhvVmLwNqKhMhtykAswHaY2xzUbTFVO11WD8wMeaMyrR5fXGD7c13prGtBwqs9tHyNwWNwUFHXzBhgDI5471UWn0eVxcZXLrwSm6jFp2uNa2sdtsW0ZwCpBIZGO0LHrByCK++tanbtYlEHBXY8O21WZ1WCGU7h8wmQROKrU64qFtqkISSLUWwqkiJBClmI7HB4zUC9cfUOPKTA2qo3ExM9yWYySZJOTVFcnL2x2z61WrDFhbLC2chTIzA7SYzMZMDvUdU796kXdKyFldSrDkRn/AOaj3dQBIXJGD6A+h9T7DNSejF6dL3S2/wCDqu2WBkZ/ISPt61ylzGP1/THsa+7ZblmhZ9pM+sfKB6ZOMmubticjB/r9/WheXBGf3OEY8Yyas7Nnw1Kuu9WPmIBlRzMx8o/lIkdjUvbdDDoykiRIOR6qe4ru02ta3lZg8rggj+lOzwTxvG6kROvdBt3l3mDggXUA3LjAYdx7E+mVmKxup0d3TFFcbrQ4uKuP15U/umDXpiXVYbreDMm2xGZ/Ce/+2Mk1E1Nm24fywSYNsiVj8JBkkz6xH3odIZHDrowY1e5LjrJ33A+48/8Ak59Mma2XSvi17NxhcLPbsurqFAnzGHA/EW3dz296znVvhdkfdZG1l5smZ4+gnnH0nPpNU9vWki4r+R3IG3aRkMCPtx3rT1QyKXR710rqSvbQhoVtU4BB+ZWa66z7HA94q9tXw2/sFbbJPOFP5cxXgfTuoPauO1swEsoYb8SIn8g0/cVvuh/FK302sf2tx7V3YAQvlu2VfbzEkEgE9qy6Oh6PSolm6Wu3FnC7QB9wSf8AapdWYKVB1fU7VlkW5cVGcwoY8/2HuanUApSlAKUpQClKUApSlAcV0aq7tWRySAPzrvrru2gwg1M74vj2Y1ZVanRi5lk3x3J4+3YVjevdTsoXt2/2m4bX7qIIgz3YRiCD712fG2vuJeTTMxt27iBkuTCXH3NNpzGDABGe+R3rKrtWbd1SrLkMBnPE/iU9iK8uHDJe6bd/Hg6OMX0kcN05EuFrd5w4HkxgEj5l4LY9QDk+k1W3gUMXAASZD582PUnmM/71p9NY1GruKqPv8NAvi5Xw15ILwGEcevMcmnxLoxstrZcXXDHxXKqiXCTMIQOQQT6favVZykuLu9FH0vRXnuC5bYWwCCrN3z3HCqfU/kDUzQae+dS/iRZC+e6W2gFZ/wDGBCsPSIgH7ipHRbJtQbrvLzNpV8gXIhiwKuTyGAMfrUrXXbjWbi2tinZ8jKCxVfqUty/aefsIqW7ObnG+L3f9H0b5hfDubszwIIn3ys/lzUO2jXHbyqG5KiAIE4EnOKj6XXjT21t6hj4p8zLtMopAIFw4lx3gGPU81ZNcbIE7EIO9VnbMd/7nNVF+Dw5ISjOn148kF1IkHB9/zqX0/qb2WBUlgOw+ZJzCfjH7h/u1SNTpxslYeTPibuM8ODxHrwMYE5hXOntbaGHYlT2PoFPace+arRsJShLRudPrbGutqHjdwrr6+g9D+6fynmqHrPQ3tGTlTgXBx9j3H/M1QJdKEuh2t3nIbPDjvnvz3zArXdF+Jw37K6s9ihySP3Cf9Rfb5h+9BiGfRx5oyWih0PTmdgqLvf2EAfbso9+/etRZ0FnSAPeIe5EhBED3z2H4mgV19T+ILWmTbYXZuzO3zH+FTk/dsDPPFY7U3rl8kvwfMV3Yx9Vxj80ep8o7DNCp5VFbLHrfxE+oaEjaDgx5R/CD85/ebHMCqV3W2AHeHIlUkbj3lpI2g8ySJ7Como6xaQlbbEkf+SJ/K2D3/eb8h3rP6rUeIZjv9yZ7k8kmqSODhLJuWl8Gx02qW4u6208SO4ifXMZJipi6gGQ6ySIHaI4AAgD9Kwdh3tOCJUj+f5HmtNoespc2+Ipng7T838Mj7YwfSax6OM8ElL2uzSbf2e26oKMd29YJBmDJ7j3yM+tZ7r/QVvSYLFRIuqDIHYvGGH3Mj17VaLfNs+QsUYSrMpyD3EjPcTzzXza1Byk4MSvY5xUr5OblwdeUec3bVzT7948RSYFwM22CQOcf+p9au/h3UA6zTHcCEjjt85G79a1j6FLit5ViMgrP65z96ohohYuAJC2rTb3JIn9orCAYlhIECScd8mjd6PTizc9Ps0fwT8UXRqU09xU23LjqzMx3LtB2gGYORH2Ijirz4t+OVsbrWnh7v1Pyqfb8TfyHvXl1zXlS/hk+Zy28gBsyIB5UQYgHNRE3MwABJJgAckk8D1rbPUkTNVrbl12d3Lscljkmtf8ADPxTqNLaDXB4mnBiCw3qOJSeRPY/yqg0nTUthbmoOCRsRZMnPlIjzHjAMdiRUy/+0VXv/s0+i2MmYIgwJ9tigHieKyy6PXuldWtapPEsuGHcd1Pow5BqfXhumuvaZr6ONMVypES07TDqDEQR5QDEme07X4a/xEtXgE1MWn43/Q33/Afvj37VSZDjRvqV8KwIBBkHg191RIpSlAKUpQClKUBB6n061qbbWr1sOjcqf5EdwR2IyK866n8OPpHtrdR9Toy6hXU/tbUsBtc97cnnjngkGvUqVlGpnm3Udc7I9q2oQWwCtlASuS2LhGWby8GMleZrptaV7ds275Vme4twqBtYBVAC+X6cd8+9bjX9IVyzp5XIgkRn7eh/5jmsf1DR3LILOJO7aM5YxJjvgZ/pNQ7R5c3NuorsrNQgaYBBMgCJiT2BOT6Gsr0tNVY1bMt9tsnxHbkjggqcq0YkcfbFaW/cB27WNx2UeQDFrJmTnc5wCIxMAk5brs9La85KlgSu8kx5SRIZ2JGxTnJP88VqKx+n4Qe9s51a2rrI1xTcK/MwOwmOMjB+7A+wBFafS3V8FXFvG1v2dsuAQXcNI3je4ABZjJIdcd6otFbVLp8iagKszO1SwGTBjcoM/f2q+bRyrXrd4p4rCUkKisVnYYjc099oEc+tUqS0ee5W+TtlDrbtpSrWDIM70IbaYCkEhpxkiCTBU5giu9NahWSwAmGtbftm2c7B/btMVFFxrSmzetkhc7TgqdvKn3j3H+8UW/lyPMJxyI9Rzj+8TzVNaPM5tf58Hfq9IGR7loykxkiVMgxz6/8AMGIJSZkbl/pPcemPy7etXHTrKEXWcKzqu5FZoV8wSYjdtGYBBNd1rS3NQm9bNq0qmPEEoDONu2SDmMx7VhqTdOOmUPhoqXLh3bUAJAyxB7dhAgZwBjvzndf1R7o2jyW+dgPPu5+pvvx2Arb9U0Y0qE3HVbv0W1Mk5Elj9IiSOfeKybaR7ykoi7ZxcPlUnJ2pHP3+UdzRM9uGLiuU1spFWcAZJ4qbY/ZmCsP6sRj+2QRH6mMV8Wh4VyLiQV5Ddj2PuO/oRX3c337m1F3EDt2HJkngD/aYyaHptJWfGt1KtgCc5c8k+3oPb34qw6X0JnAe6SicgD5m/sPf+uas9D0uzp1RmbxLxzESqf2IOMzP6Gpj3CTPPJ/p/epUr6PNnzOL4o7dTqC7SxzH8gAP6VFsay14m0uN355zxPFVHUNSwlcqDENyG9QT2AB4Amob2lAAGZ/VvYRNa0RD0/OPKXk2Om1IAcmSIJwewzM/YVV9L6ubtkvetrdtu8OpAUqQBBtsMqYxPfEzVdp9a1tQGMyJVQwleQN57ZztIkjuJFdWl6g9veBBV53LAiTyVxCt6ED05qGjtgwuDbZO1nw8seLYdrtkZuAAeLbHfevBH74x6xXGkvD/AOmtgEwCSYKkERuckhlePlEEwa50eoCHxbb3AVEyhh1/Lgj9R61xp+o2NZyy6bUHG8eWzdJ/GP8AxXD+IDaT6Uo9aZ9PqdjBgGu32MSw+Wd2COEGPlOYnMV1f5S4zEOpa4FUpdtsYtY8qmBK/kJxPvXX1G5c05No2vCud8LkYjaQPMpiQxLexkTUHS9YuWkZUJktu3Ekwe8gyDP2nNDbJnUtMwtl9Tci5A8JFAIIznBEAwPN+snAoWb/AKpdus5liWY9yZmu/TaVrjBVUszGFUAkk+gHf7VqMND8JfGl/REIZuWZyjH5R62z9P24/rXtPSeopqLS3U3QwkBgQRInI/3GD2rzvofwhZ0lv/NdQdFCwRbJBVT2B58R/RRI/i7elaC6r20dQQrqHE8wwBE+8VSJZKpSlaSKUpQClKUApSlAKgdS0KXkZWWZGCMEZnHuOc1PpQHmZ6dd02oUsruJYi7bAHCk+dSCFfiD7znmqbq/Urty3tCi1aYkoVMqYwWJ5u3JI8xxkY5FewXLQYEMAQRBrJfEHwsr2yqiU/D6ZntxnMj8/WubTRORvjo8/wBFr/EUWkBfwzJkrJkbe0RwYHHqZ5vNF1NrYJEHHnX5lMdmBwfvivltGNIEATaz21R8rLAQoNwxgNAxOds/eNqL3hsypc8QyQ1xZVYONqRlpH6mYkcacVh5y5PS/k09rU2tavmWWIAAWN64BLs5hVQD6I/vVFrdG+kuA4IadjRh1HOOQOOfy9ai6HpNwszW327CpLNIVROSz8AjkevbIip76Yea/qrh2mdomXujMFfw2zGCR6Y9KUvkjN6duuKt/P8Ap8aTQm8vk5LHeGEW0EkA7ycdo7n3r61vxImmtpasN4jqGQXYMnedxW2vJyRnmRVP1HrtzUk2dOgS0hjaJCL73W5Zjg7cmo/iW9KCyDxb58pdsKpPYkTsXvtEkxmsbOuH06hvyTdF0VrrG7qJYkz4ZPJmf2h7/wAIx6zxXZr9ckbSPKGjAjiQAn29eB7xFUzfEBgpcfepbzcRwJQiIKRI2meZkHAmW79q6wJfaAIlpJCjuSfmPr/Spp3bKzv2Ul2dD2rd1QtwMQPlIEMv8Jnj24/PNWPT7SoNlq3C/VPJ92b/AJ/vXe+iXlQdqrLSYKgd2OBuPp7RVJquqkgW7ZwPqA+b39z71fZ4YwnJ8fBcdR6lbdgXc7tsEgSR7uRn0rr0ziV4YYyeCPf1HrWd8AiS4M+nf7mvpXe3B5Qn3Gf9jRJHaXpXVp2/qaXU2hcV94ti0iyYBYBQYkk+Zmk4MSB3HfKvdt22/YzBBBZwCRPIXmAOzYbJrQ6DrRtedWIg7WU5GTEMODXxq+nWNUZ05WzebPhEgJc7/s2PyMfwnB7RxUdHpw9W+/gz1q27hiqswXLQCQPcxgd677D2vDuK1tjc5RwxEcYK8cz957c1xb1F3TO6S1t+HUyDI9R655qIzj0odzmSplcEdx2r41ekFxd8BGOCw+VvQPHykwYJwYPEVb6HpBcMWB8qhicBYZoWGBJ5xu2soJAPtbdK+HFZbn7QIVQtteJYejZ2vbJA8waOCIaKtwaVsjmnpGa0mtKoLOpRntj5W3Etb/gJJhfYY9mxHxr+ksii5bPi2jxcXt7OPoP8veZAnt0lmbw1BKZLAss2YEkljgJ+8ceoBqNqNFq9AUu23DWrgJtuCCl22NuWQ/SQwwfU1LTi6ZsZKStHZ8P/AA9c1b7Laz+Jz8qfc+v7oyf1jb6zWaHoNrzfttW64TG9p/FyLVue2Zj6yMdfx98UnpNmzptKircuIWFwhYQTBKqAAXJnJEYzNeIX9Q9x2e4zO7GWZiSWPqSck1SQbNJqPiq5rtbZu6wl7a3F/ZJO1E3CRbWeY7zuPrxX6S6eqi1bCAqgRdqnkLtEA5PA9zX56+C/hj/N7bgBYz5UHsxEsewkcmv0PoUZbVtXILqihiOCQoBI9poSSaUpWgUpSgFKUoBSlKAUpSgFKUoDO/EXRfFXckLcE5IlY9GE8H17fqaxugurpmvLdV7cKNygDMtIFt92AwWZAOFMdq9TqB1Dplu8htuo2n/vj71LXwVy0eV6vqlzUbrfh+Fbt5W2JCmZz7mM7jySahabptzUqruzW7RHkXPiODnH/wBtD/7Ge3Na7r3w5dRXa0dxYEEnJjbAiT6f89cj1TqT2hbXaC6W1RlnEbQDvA4BjAHm7ypg1MW3o5wntpkfrF4WwlmyyIvDR9A9cTJP5nuaoNfprtsC5bK3bQMuVkkHE+IDkA4ggRgccVeWTbuIUuI7IPMICm7aB3HcpABvWwckESBzgBq7n6Hct6O7cvN4dsjctsz4l62CCR62kOSTycCYma0jozIaFUR2JbLAEgZC+7HIXP51d9L6iLl2xZ09tLZG+XdiTdYpJ3FsKp2wBiJyeWqiualEUKgUoT8gOQfcmT+Zq36H0h8atQAqRPzFh5WlxA2kRiCZMnEZrGyJdGq0d93Fy1et3FYEjcQRubvuB7rIkj1471G1fSUuGEAtXewiLdzH/wCh9xgzkd6i6HqzXXbYp8BVJa4wYQswCI3AEnAXP3qL1DrIclUVkVgFd+WKg4gEwDtiSImO0mVnHHjnzcul/Z8f5rw0KGGefKgOAZ5cg7SBnGfyFVi6u4GYk7t3zA5B/T+RHHapTai3bH7MSSOSZ9wfZgZ7du3etuXCSZpZ6zW9K11pgqpb2mfNbGTx84nN08z9WBiK46xYUAbYKkAqRxHaKyCvA7g4II7ffFX/AE/WtcR3uS6pG9wZKj8Tr+H1Yd+eZOS6JUd6JdjrC3VFrWKzqoi3fX/UtjsDP+rb/dOfQ1H1/S/AUFouWX/09RaJIPOCDgN6odpxz6w9WQDjg5B5x6j1Fd3T+qtph5PMrgi7buBTZu+YBVAmd8GeAwAJGBWJlGosaNE0tq4l0PuP0Z2R3AMGQQJUiMDiARV6Xot29c3XHCWlY7WUSGkglbKHv6zAXg9hUjpOj0z30u27dxUZC5ts67FYEgqW+ZkAE5g+YZqbe6rc1Nw2dCAYAD6k/JbXsEgEewgGfpB5HrjFOKlJ1+0eKcnGbjFX+mcfEPVrOnt/5ZLZu3bq7Vsr5mYkQGuEDzHOBH2Ayaq/i2w3h9GskMCLCKwzILG2IYfcVrumdC0vS7T6m+SWgl7jSblySJAEkqCfpBz9RjAkdV6WdRrdNc2wlu0jfb9ozR/SuWbJb+h1x4+EfqYr/GDSXL3ULaqCQmmQj0E3LsmfyH6VneifA13V7Vt/PgsSDtUfven9T6V7frfh4anUG5djwwqqFXlwBPmP0ruLYGT7d7/TaZLa7URUX0UADgDt7AD8qlHVld8OdDt6KyttAN0DxHHLtGT9p4HYVcUpWmClKUApSlAKUpQClKUApSlAKUpQClKUB8kTg14T8eC9pepeG0CzdI2MQAAGbLbo+knIOIHHeveKquudDs6y34d5Aw5B7j7GgPzx1nV3fEXG1rTYK+sjKn0ODW963qbly26Lb3q2mkuW3PduG2DA7kAT+o9K02s/w+slZtsfEHBaIgCAIAx96run/Dr2XVbm5m2bDcJgbYjascAiJ9a4Zq7fjZjk1pedHnnTfh7yNccKWiVtmc/xED+XHrWp0KF/DvwbGfCuAFM8gBEJ5BIIc92A5zXoFjpY2+XaoHY/8xWc+ItOiFduC2GA7iRXmx+o5ySlGk+jJxeKLlyssfgjSIFv2wF2hpWAs7XBJBMCfcREzjNU3xb/AIfht1zSgK3JtfS38BPyH9049D2q5+FLm0PCSSxWR8ogCFbuCTuAaDn7itPpNSLtpHCkB1DbWiQGEwYkV7EzcVuKbPzbqbbW2KOpV1MEMCCD6EESK6Ss8817v8W/C1jVJuci24hVu43Akwqmf9RZIAU5zg9q8v6l0EaVhbvo9ts7Lyy9q5B7rG4EcHb5h+Amh0KVbAtEeLb327iyrI5Exg7GAI3A4IZTBEETV98K9BW/duPZ1NwbFBVFG25OQJJm34YMSQWkHbtkxUvVdHuWdGNQuy/bdg1y2DFor8oNtjDi8MDeoAHynfG2qbRdB8ZvEt3GTTEeZ7ikMpn/AEto/wBW7ifIYggkrMBRp3afTvcZ0VAt1SfEW3HhMJhnQzFhl5YHyQCcRtr5610V7Fi3eDq9q4di3EaQ5E8dyJU5iDE1J1+qGw6PRWS5byG2g3EmDBvEYY99ghVyTJEm1+JdK1vovTrL+V1Yhl5yA85EiO8zBxHNZKJjejjovw6+u02jlyLQS5vRWMvN98EcBYXLN+QY4rdWLFnRILdpF3Lwq4S3jk9y0dzLH2ERRfC9+5a0dq3bUz4O9isbs3r0Ks4BM81WdO6frdZfBIexatuYQcyCQZkebMgswI5gNkV3gkopyf2RwlJuVRX3Z39bS9rLlvTjeqXWi9dK5W3IIa39IUsCoHJI45r1GzZCqF5wATHMCo+k0IXzMdz+vYfYdv8AocAATqxyctsuKUVSFc0pWGilKUApSlAKUpQClKUApSlAKUpQClKUApSlAKUpQCuq7ZDCCJrspWNJ6YMr1yxftDdbbcnfALD+9YjX6sncSdzc5IHAJ5OJECF7zFevlay/X/hgXJe15X7jsf8A5964/wDKMXcUebLjk3yTbS8WUX+HGpC/5m27je9zcoOGMLBBByCuAR2xxWt+HnnR6Y+tpP8A+RWR6Po0spce64S9bkohgSc5UxmRjy+pmafC/wAQC3at2TIFq2oIuYbAE7exEyB6x64qr8npg1xVs0nxLoP87pbllNhYMjbLgO1ilxX2XIzsfbEjsZE1C0V5dXbeze02y5bgXdM53Y4W5abG9PRhBHE4g2uq6pZtWxeuuttAVXxDwNxAAY9lkjnH25ru1mm8U27iwWSSrLG6CPoaYg+hlWHPYijoeW9e6BZ0d8C7cd7QU3EtNIAz9bztKz3C7vYHNV9oajqbKunKpaU7HeGVba/gtheCRkKss3JPJrefGHwqNdrLDO7BLVuWRDBaXMbjEIuOck5AHJEzV66zoUFq2qtdAhUUQqTnPJWTnuzYknmhn3IPTej6PpGnZ38inLT5rlwxMECZHoi+UcksfNXZ17p79StaNlUoG3XChgkBlWAxGARP/dZT4isarUgYLXLpwd4UW0BO7xFIhLUY3AzugQxMV6r0bSGzYtW2beyoFLREkDJj71lctIyW0Uej+F2t3kcXWCrZW1tXA8rMdxHcndjiMzIMVprGnVF2qIH9fvXdXNWlRIpSlaBSlKAUpSgFKUoBSlKAUpSgFKUoBSlKAUpSgFKUoBSlKAUpSgFKUoCs6l0pLwkiGHDCsynSrdpz/mVbiLdxJ8pMycdyI9eK3FdOpsK6lWEg1EoX0Zx3yXZ471/qt5XuWnueJZFxHt3lt+dGQoylkI23F3KCQOZaOYGk+G+tXLrW1ulDc5tvbMW7qnDG3jysPqtsMECRkMJvVejFAQyh0PB/53/P86oeifDlxNQGt/JuDFJkGODIjaw/EI/2rlyXXkhZZKVSX4NF8TdWvW7/AIFlDL2lY3B9I33BC4gH3P5CeMfp+iam5qbbJca34bMtwrFwXDIkWw3zv2Zmwh5M4PonU+mXLtwMI2lQpE+7E7iIbbn5VILcEqJDWei0K2lAUZgCYAwOAAMKo7KIArpxbO1kPpXRVtCWyxO4yZlvxMYG5gMDACjChRirilc1aVGN2KUpWmClKUApSlAKUpQClKUApSlAKUpQClKUApSlAKUpQClKUApSlAKUpQClKUApSlAcEVwqgcClKA+qUpQClKUApSlAKUpQClKUApSlAKUpQClKUB//2Q==;" vertex="1" parent="rwGKvkM6uw_88Vz11CZv-5">
          <mxGeometry y="20" width="94.67" height="63" as="geometry" />
        </mxCell>
        <mxCell id="rwGKvkM6uw_88Vz11CZv-3" value="" style="shape=image;verticalLabelPosition=bottom;labelBackgroundColor=default;verticalAlign=top;aspect=fixed;imageAspect=0;image=data:image/png,iVBORw0KGgoAAAANSUhEUgAAAMgAAAD8CAMAAAAFbRsXAAAA7VBMVEUAAAC8EUL///91qSi/EUPBEUR4rSnEEkV5rym6EUFypSexED5eCCGdDjd0qCgsQA+LDDEySBGlDzqHDC8mAw1FBhhmCSSrDzw9BRV4CypqmSQgAwuiDjmWDTU3BRPQ0NDb29sjMgzExMRagh8SAQZzCiju7u6dnZ1Vex1XV1fk5ORTBx1KBhonJye4uLg7VhRhjCGFhYUrBA9NTU0xMTEeHh5mZmZHZhhJahlSdhwXIgisrKxzc3MWFhaUlJQ+WhUKDwMUHQYvRBAdKgobAgk+Pj4mNw19fX0QFwUKDgMVHwdlkiIGAAJcXFxra2v1XfsUAAAbjElEQVR4nLVd6ULbuhJ2grckLAkBAoGwBAhQAgm0PUApBUqh9NL2/R/nepM8kma0OHR+nHLAlvRJmn0ke/VKtDvcGVV781+17Dk8e/7n7Ozjt2Hyw52X0PNtlQ61tPNf2rB3keA5+u/T3fO3D9av2gO59Rh94j99O/975t2dDCuMGdLu16SVj0e3vOG7M/bTV9s2LICMjk6en59PPA0978wAY/RX2/TH5+ePF7vvAORc1w2nPydnd5/+Dp0QfLh4vvv8/J9V+xczABntnB8dnd+aO4Hz58CoP51a/jk8Orod0itDAik3rBtZI9HuVZouiA4IIDtEM/cd9tPVFfGIpaB5xt/+dTMpfnqYdPBHvjkAGVLz8dqP3+4fsx/7i/f57+T+zofDoRbDbvLAR+mlopHrcJr9+3T9Fk+pQaCSTAYyOv/550QVI1edveKnfhiH0+/JD0tx/PaU/uZ4+kt5/qNmh12oQ3vsZ+u71A/DtMnJW9pJ8beXyb38+J+TP3+PpJX3jJ3kM7QYN6fXKZiXcG5uLn7b857i5Ie0j/u4maH8/j/4BrUoHwTe23tJ/9uZi5eSf67jcG7xwev0k3/nwgzEzVsz7j/iYzoRJksEIjPg6+srQ5IMO4z7Ny+dFEjy881++k9843n7YRimO2PS/ALfxbfyrtD+S5xOwVU8F1573jTO242zHuIv34+bcdJ08yF/9tfr64M0PIhEAPJNfG7aDOO42d+/Snt7y5oP817Sn/J/4mkn6z9h0U4sIsFEvyhElsL4f+lCpA0l2ypvl3eQdxXup4Cvpv3FOA6bN8L7zxQQeT2aecsJmuN71r5MYZwDWkoYNWy+wvdVJCKOZJfGk2RnigBkat7vzyWY0j+HfWmEwKCAQHalx7xffT5cqhtOi5N0YzeF948kHB+Ev+6lbTYnxpbLNZJxeLc4kGK+XpZS+t7pdCbHxl5Af7yvL8fIjKV0x36fSqTHZshfs6SrSYfRnrzmEEgxYYlczSjZpC69FHCmKbPwrSwIlj8cR8rjfXNjSuNhzOhJXnKMR25i9z44JSD2w5ip/RPQOrfajsNESE3dJwl0cq/lkfrXoqfmDH3Mxcdzc7leSOmcNz5iOFLubu7PMllzTFnWCSC7xd87M/WSTXWi2KS+mLmeKVIn1lCo2FiCqsL1SH+mfrKBsklj/Mglb3P2tpkwofQIX3yvM3Nnc5xNCn5n1u7+OzTN9S4hfoGhNROX5BQW65/bqsyenm3X5g2/8WGe4UCAOScpkMWmuyTmm2sEF6SK0JVmNQbW8AcUSP63h5en11+yRdK/mTrzZzwpuYRxyLVjI2G8uH8jgQ87vx6fXnLXYQcFUqxIM15cVPoL95eu+o7LwiyKOteFr4tuMMK3SUdVOOHiHPO68BUpogEv6DYOE1nxdGNhdIFXiiU552LkxmUmElv38X+UvnnU8Qiz6a7wl8MwsTwm/dh+MMWSnNSPil3rgCLxD7yHfaIztmspE4VpdspGCePE/9k7Dm0lT1x44mzTXlu+GIaLN8mUH1Nzxtj9rk4AqbNIJdlj3Ezn4qpptyxMcDG5binU43460CtSurD1EIxrwtWlvYSwn0YeOm9Wkxt6kJZs0Cd7KrXTJqQBEC4yO452dYGLuETKlzCcpqpuaWrB94zdrVk9DPezCIdmnoA/fU4B2c3/nvmrE7qpjOsTZtk3Qskcbk5GZRjO3aSjfNWZxmG2Hg8yr4tACim51zy+3tfu55xVElfQBEVwTg27MfFSsvHRzJFROrgiQnRLASk9K+Ncx9Nshb9QApI99lDi0FuiyTJnyvqlb+K+xE8sduwuCYTZ8TbuWyqKUyhTHZR4rwRyr9sw4XEG45dhYvJGC0/6U50EwrndxiGJm9+zZ3WcGYPA8BUtCeP9nIPvVdsIaZNZozsaIOcuSObi/TyONWlSUKDYIg3GuJ8L1Ccrmc5x/K1rgHDl7lk1GrKI/A3BVKF5RXgbdpYxF4Sf61ogpVNiFx6Ip7kAeZqij0MeQQV6GB8/ZH/dMzJ53iCPme0agPB8quxcERTOFbsH1cUhyDhgVnXYf2HLYdfbtWcLJI8G/u/Je+zYtDyXcgpDrowUeKUJqUNljv2r3XIkSmTp1XvKGXPHAOSMsYi9uR42i2ldkhclFvJzctwh7hcZFXP8t+wrZvNmWhEW13SKoMVsxaVFEY3GPeGPYXiFv2ToioVjRwYgPH3oFDgNWfqtA+2LWEqYwiWJ+4UceLLdVmKTciJRTYZyU55WYBgStr1e3/hrIock9Ks04DhjTRw6SYiLczlJqQIZ8eC/suW1xOeKeWVqOsN74s4BU5RO2yrscxN+KA8bSU+PuAT+hSsHCgkT8fkEKOuR0pf8T3xAb05TVSbeFBx4nr3suOMScuTGw0Oy7WMx3ccpsQr5tnp0WnKmcjxF9JJAPufrsbT3ffLm0FMy00z/7b/teQS99JmI27MxEcvGp52lvQILUl2BAilE8HUcO0ZqwyaRE8fIyoWHjSc6pGAtbBdhQIowVCJRnCO+YoZaR+4Rfy4ZP9oC4fmFL07cnndmicQZR2Jeso07tAUCyv46rnkZSyR4XFZDzGkhFoQqc/padnlFek0EElV9IOQMo/TQPqMjpgrPABLvatFJax2rw1Zp6gSjCRzNM7zwiK6gg926pDV4QldLZEkIRjDM9x8xXrqm8UORZHra27t3yDPZ7Sy3vdWf7O0VnHdODVdXnJm/+jh10ibxhB581UVOnZCH7C26ZlpXLvu56LPz5pATwSwslOyNnzCcsu1KF0zqgBzxTl+ObbOhsbVqt1TsYdy8eWLvPNOD1RYww36/W2GJicpQjIjEmIziBbyiKfjWAtmV5tC4r2WXUE9GX2TxXjQ95fovayD13TuhIVPVgi2jMzKl4kDwJyVSYpmBJHzCON77dW2wVrhNZ08mqzTul0tMlWBbAqnXh6yG/ct1v5nWo4Uor4R2Gl2iR8IqDbMasyYrlvZOzk2l6jbnR8qq6V9Pnavrm+M3ZW2KfFwFWlJle9icHt/c3H8HLZoHaQMEOXghpAPDEEhId3rJqkhBc6rEoOwSRyBlMSKjx2YJImweO8hcnCb7i2DDqkaOxREIu6NJ0tGCSVEkOdefXndelW4r0ZfOzbRftNuUZsZ8nsf6jJVgCz/dTyZLe1/U0v53oIenl85kMoGzYxBXbkDq9Z2fn8neSVpf6y60an5CrYX2/GUFYP9plUcVIIl2dDvjczC/0AgC36/l5PuB3+quOuKwPyFoD4Q6kYHT+qAWMAwl+VFrY9OpnY+2JxFtgezcmTstaXshUlHkFPjtFSco+PGNqkCIo4IHBwfYb9skjHyTdZ2QfLIRWnZAduXlOD1sL/QaUUpBa3lwuA3/OF/TwchWpTUWmvuxOr+2tjY/PxbaKUln9boAORJavTzcilIm5qP1/agH/j6IDDBSitr8+W4vnY6coqg3OBRBZnRiHqQFEBgZ8uaXA5WJg3KvbLYCCxzJK70fxWr4QnOJcAtqg1MZCREDcgICD9qttRBRlPTO2Xe7YdpW/J1GoVa2EOEWtDZkiWBiFCMQgOO0he+aaINvO2scKZJ8rKvoEgZ+V5IjBjlsAgLOwQ3Q1UhGtMyeOGjZ40jea+VvtfHNGDTmXZAYgJT8sU1u/gafugUXHMlQC46n4EcDYVE+a/lED6Q8z3dKLEfS3Tp/xkZeCa/mAmqFatpvrEMkmmCQAUjpUa2RY4xKCdNzW5BkoIXYXqVbF7bXX81YdUBGNjgO+UOXrjiSty+N7a9BJMNqQDijz5O6oRRYlPjRUsCGeWi5JpWA8GKOdXKqA4DD23ZfkdLq6pKz4EPT/2cVINyRIoUqXI+EnHEAIJQQTqjxA/RB6kUaCPduN6gugMGU0cB5SQLAASQSfwH0geYP9UCYxbtii8PbdmaSCHq/bYpPBIan4tgkEC56KS0XqV4FvdFxEuY6eZ1C4gPFSBnCJBAWAVonWg8OPZW23JAEkv+xQfUF54ywVCggu4YFCSRDqKCeCxJRR6RESeEA8Dvh+lJAmHFyiTbt1xDvJ18TezNFknkZrREGJHj0Ez5gCggL/aDb3m8QPqmXyjg72eXX0DU9Jfxk8AgugQkg/C6AFjaGFhZyYLS9pQ09FE1EW0RYCHfNgEVHePAEEKZEMFYPtjQwUhovG6AkTr7izHI6wPjMH5QP4KqEAMLObCPKUFEf2LR2a5FPuGF+VGvrA44L2HYGf3cBwsoaVYc6UEQNTqcby7UIBlvSEHAQBb02vRiMEIUSAewok+BAmAH/uyHPZ4MSVwj93l7rLvRajRRQrdHqLXTXVn+YX0toTVlOKLfQuDYOZLd4RTY6eBDHhQ42Ly83f/x2emdVZnloBKCXhuFAmH1yKgIJLNjDgcYbg16v1eqlSyXLsINlaQ5BDBBNxOFAmDoUeN33cW3u/VhdO9zYOFybdwm0rw4ajIUy5ultSLpJYhS/3Atn2JBxICwj3QULHPTQKPppu1VGPGsDW1HQkyV0gmVZFAOnAqNAQ9keCMt+tssAL2LsplkQX1TkfhB0zYmpS1xn+lFLWPMDaO9AsWUPhJm+3FUKWkJgJqfxMmaO+EHXwNiqTCqHuyz0c1h2AK1ULMCFA2FebmH6+j5i320vUFZV0NCqCtKBKqZB6KTHHob6C7PkcSDMO8yAJHYRYiN2dcZhgABnNDBY+kFL2JuHxfJB/wfTiIS+L4H4QQsRVuuG7AFtx2jXI18U0UdYyWPOcG4wd1cPZC3w1VyFlwa6TAZuNEBe83QBLLgoouxbHwSBD70wayAjT0+USyogQROFdHBUh8S73Bi0geuAGfIoEMOllmSQQESCqRTbvEOktywRsYUBoa7NdMKR7HVV0ZMhMoUCRNyXhFhbCJDdM10bdrs8A6KwyQ9bGCnpvFCkIkIF8k3XgC6gbZ5V+wVJpkHvhypXcypADNfvkkkZbCwL0suyd6OlCAuclXSnPxk6MhXOOCVzItHMPHUM3xmMth0NkJGp4sRlc0gRQmiCWpGyoDINSSCC/tieVwXHpmNwtyW87bSzaooM7iZOi2grDSkgYF8dtKPEQZCBOKZtxWg7HrTUkA8rQzIbzZeMuF0cCODzcSOd+0ASoJZ6uSQh0u0g79jrYEmKlHHQg3NzN8KAALnLWCESYyauCyKqEjf+yl4HIni56NuvwaDYRwQI0Oe8wEfUaVSGQTMSuDkdeT17n/PEZTkLPmSdCxVIWXsJshwNb7aRwPed1xPa7nBfCkJgRwZSlizCbE0A1vHAVeqkfQJDAykDMhIXe8IkwlGdSUDKq3gFDw5yqzuzJkCA4VhhRcqcljgLPtC0tyIQbrmLvoYPPD33pK2o2ysBYRMp7gZBMAtAdtlvx+K0Q+1aYWfNDIRLG0nOQJvhGwRyQowWQF+vsLNqEYgVV5AVnEl+y51DyxoA4QuiZNpKsUOk9/QUAGY/rDQT+btKsh8K9qMSCKsvQ6yId5nQjKoIC7Y3L5V3gdb/XAJhv0L4ebYtDhWiOhgLKsarFlXApocMCMsY/kBUN38aS4sagQjhrSpLWsRTkOqQsnIvyzN4kNUxa+g9hjHDmhYtIKsJJ2mUA+FuCDbpMwGJBP+hirgogGCOEDB/hjkQVmGGWukzAREdKxd/n1EBRBG/NSHRcJEDYWZWF+moHEoVXpciwBWsLZZNQIAAJ+tTDoRlQ5bVfoBsqGKgSCngCgKYsTRWRAC8lVEKhLHIAdIOMFEqWCiCE1CtjUIhouwLmt9JgTDDdxthEbA53PeFmiVxV+5ssJjEA6b1UQqE5aIxoQKrJ52B+EpSXilAMDbBdgRmegvc7pXnXDAtAhSBs/AMkMSC65JwM94wuD8pEBZ0wIQWYFd36xdLuzuWnXPHCpMTwOv7lAJhSXVs78CqQ0cbBc8jukWUSi9irAfipUCY6YttwwbINLsxiS8qQ05Olajl5tnEZlkCwo7mYUDgaNz2VkTVZDltrnIekT9SK4LMuBjXchkCVnlZzK19I3B3IvIXmqQpEI2FIu5zh4MuujSN/amGBvAvsdGB+JZB/Eo2hvWSUAySk62lIpy4QF4CIfLPKZBb+lFfzNSMbdOgNX2Oxg6JGEJHjtkEJQd9TIEwKx4xUeSJtRM5fo0uC87plC6rKVtpibU5ivSHwa0LaGupIVHZDLfbXLryZkbrxgOLfkMycBShCiVRZmvxEhrFjFcrSg/MJyaDls0x74Nl/TZVcKgmUiAUdaRA2OFPhdsDdUgrJiSRKfPH6FBbXtRTar4Utx3GlTN/hBtbsvkgpr4K0p8q9n21cCOtMl1BqlNXBlTBNl6uJ21rOLrCQ+QpHomfiAP09DlvP1oQxdXlaXehkcJLdEKvfbguTfMYrV3zox5qFUgbBur1b0U4iDGJpHQioh5krYEuih+IFe/bGz0/gMfeg6gxmBexrLcbSlHkFlFQI0nVAOysnQIIETEltdpBt6FMZRCIRaLowfdkthtd0br/Pd9u+flJ/yAIaluHtMgT9haUWWcsQMf3lmDQaK9mWNvy2UCzIbTEst2xUg5bIlbbXRnPb7Tb7Q0ksw9J8MpgOP4bj/2yBLuQ7oz0YvT36cZCK4oivzfoSne3/KAv4cjGULOsDpZ7BI0K5uyIA+FH3IDWMVZQkKQph2VztOBWKl8QMCyg8fQVJHrY74D/IgelrMlcfqkc8LakAw5EKB3aBUD4MVB+jtlQL0WTXJ1PEHFsTk9MAguD+09IhvIsO0vqymcEbcn6AF8lJHlNpN+C+vWDAKT8bHYu5GgPT09I2JVEYj7ak9Hm+umYCZPt9FCcaJVeSAUDvKLmdzqnVNmuiegz0Aj5FvdUreeHIaJewRTryf+KpdpSwQCs1UqEp74MjyT6pgAUiNaPTKk8neHzgvuxuCWVEg76m+z2hMVsdITFIgGti1oVFaNIUQ11gdb2+JS6nEgm59waZc1l1JZNHGQBy4s5YOGZ/BV7LzPqEkMo8hvL8skhhLBooJ58pUaPE3IPCxK7RAvP4GdtCiovp0nMqWWTvHSQWHxJKK07j1oH8lPUl45vpefEox5+1NLaSO4LQqtdvGxdVj3wkL4ARCqKn1dai3qaTV2leoiwTAnfTS5Sv6CASF+aR7IyuBOaU5XCBjxmT1oHvvjckAQi3JCpLkjWc4vg+kqlJlhc4Dd9NkNiKfrDjkKBP7FVfOLYcaWiG+Rwhu5uK3H9NB+tE5iEzPfh28v5CqRibJLFpb2jS/SRLmggkElWaHNDLmzOyLmWtmhLYhL9fAg6Uff1PXBxnm7PI5cMYJVFNiSFZQ0XksBCNklOiUCAwaXN4qqRQCxLbwVEWF3TIUVYbP9VBwTsLX0FuCJtnOvmWUNwcY3H6aBxNtQCKe/63DBcQCGZSVX0utyOOf8iJKm0QMq9ZQBSC8QoyztsLawYRu60NFK+6oHw8Kn5cIHoTWiEnB5IyewWNg7QYabPCLLyAYtqC/HEzczi1ybXWq7IXd0AhOtEi9oTWE7g9SoC4UOzqawoeUS+C0k9h8jCpxZiSLjMopLxCwSqVb1NWYYgHwXXHKi0OVkMEhmVKrVLXW3B6TVg9SuXT6pAdh2WGmqTzUpMwnnd7uAS1+zKAWrkrK7LXoH8XuWgC19TuwUpJ065rQYBwpjEZtPCJanikPD37RaktH6V2xIQIEy5W6m4ALg6FYrOuV6we7eU1cqJdgQIvwLbpgAReggV2J2xuuUxXi5c1Du2sPPsbGBYbaCKBEQPnO4tzgbGFsRSdnOfXb1RD7thgD1tVWkGHSPbohs+Lm752i1IaZep11dgQLh3ZbNxhUi0442T3F+3lBOljERmHwHCLWArZSvUeTgFG0t7w3Jn8dJr+evABBC+t6yOUApBFYuiG04gl2RX11zWOth+xZXH5W22iuirXhq/R8BxlF6A5QFxviDYBVsoEH5M1KqQUizl37ZEAi/lsZPb5UUr2FdJ9PdrWS1JJMYhVqzSoUJ+2Sq2B5x7lB1QINwpsanKD+TUgPkzEdLlgnZWGs/koldnEvc08pOiFmfY1RDqKV4+xGHIqVYbMQ/MU3TEprtMLS6mwW7+7fr0Zd3RslSOhR2gUnCUIg7/bg8BBCQUTTEzvIpos4t9oyeDoSS+LIKUIGTjeE0uSMOZlBxRDnWwtgzrzmrZxX8t7BpTMxBoPhCXYpNAQGDeEGfHLqjLaWW+22vU8psP/VpjcIgX/h+YgMB7ealvD5FAwOZCL64tCb0dG6BZHZ/On4636duZfhuA+K0yh1LhunWYvtLGyG3vm6VJL+OFe5LJT3dogMBkiU41RFU+fSaQlgsDGGSmv36qA/IBtLBGlxsrpw2dSafZhfSY5sNvOiBCJm6bYhRDQYkN0Q6ZWBCt+/KbFohYaLNRw8t9K1wBLBOl2qMF6Oxov8ulByIi2Wwj+tpwMZkdUZlwQXfqvy9mACJ9I3hlQy6crlppJ1FXqa/1A6lgxPBFQROQ+kj6nmN6v29WN52WiEcLxg8cHqwnaiSh8fq27l7jcQtea540PZBsas3Xmu2ASJ9Iy8aWfrNuYaGNfZWtpMv5jcFyDX7HLYoaW4ONU0Izjtu97Nko/eCbbI99eodPpKlFQ2ZaPxw0giBQS5XS6nO/1SYunT5YP12bX0VKRNDrvN2B1D8gJWk0rXZbWH2/sP/9rTV7YWf1QUQrIIn0sv1A5Wa3YfFphRRLrW1ZYGjzNURrIPJHEQlawQQ0iUU9i4bQN6uP0ToAqdfPjRtsw+JUHqTAdD7u2W41HIGY7tXcdPocTLHBtAan7Td1nYGA5LVKLkHGEgl2Ho0th+WmqgREU+Zcoca0pjttY/kZ2qpA6iPieuaKJRyUM3Nn0uQzA6H0o2tupCDCmUHC7e8PpD5CxVclILi/fzd0H1QVIPiiOJ24YISeV6A/sffuQOqjP0r3zpe31PAi/zNX7pgJSOIGP8sjcL84BbuR3f5D5u8EJJHEsnp0vCoaO/7kKHPfB0hitEhQTp1Uicro1WHMCCRZFVGAjR20uxzXO7O3q/4BkMSpF+5nt7a3/IboJD+72FX/BEgiwY7gARqbc6EJe2wJDu+Fjev0z4HU4ZeE009tGxdF+v6SuxpH6H2AiKcDDG6JH7WF9Gkl/afQOwERkaCRPAYjGIjelEVgwYbeC4gQ8fa8H7jr7gcN2VOvqgBlejcgivt4Osg+VgcYI6gtr8lBrWr2CELvB0R1Hw/GGwuN9OBfFAW1Rq+rRrPcnEAtvScQ1H38sb2+Oh6vo+HFd2KPjN4VCDzsYCZnJ1BL7wykvvPZjCCnWQwrhN4biGUkz/v5ftyR0/sDSaAYV8U2fOhA/wJIwvW6L/18nNU+ROnfAEm0yvAnui4nt8RHsGelfwUkpQ/Do5+lQ3x3cnE7u5FL0r8EUtAopX/ey/8BR6+GpjJzafcAAAAASUVORK5CYII=;" vertex="1" parent="rwGKvkM6uw_88Vz11CZv-5">
          <mxGeometry x="69.26999999999998" width="25.4" height="32" as="geometry" />
        </mxCell>
        <mxCell id="rwGKvkM6uw_88Vz11CZv-6" value="" style="group" vertex="1" connectable="0" parent="1">
          <mxGeometry x="378" y="190" width="94.67000000000002" height="83" as="geometry" />
        </mxCell>
        <mxCell id="rwGKvkM6uw_88Vz11CZv-7" value="" style="shape=image;verticalLabelPosition=bottom;labelBackgroundColor=default;verticalAlign=top;aspect=fixed;imageAspect=0;image=data:image/jpeg,/9j/4AAQSkZJRgABAQAAAQABAAD/2wCEAAoHCBYTExQVFRQYGBcYGSAaGBgaGxsiIBsgIRgZICIcGiMiIiwjGxwoHSAcJDcmKC0vMjIyHCI6PTgxPC0xMi8BCwsLDw4PHRERHTMoIygxMTExMS8xMTMxMTExMzExMTEzLzMxMTMxMTEzMTExMzExMTExMTExMTExMTExMTExMf/AABEIALcBEwMBIgACEQEDEQH/xAAcAAEAAwADAQEAAAAAAAAAAAAABAUGAQMHAgj/xAA+EAACAQMDAgQEAwYGAgEFAQABAhEAAyEEEjEFQRMiUWEGMkJxUoGRI2JyobHRBxQzwfDxQ5LhRFOCorIV/8QAGQEBAQEBAQEAAAAAAAAAAAAAAAIBAwQF/8QAJxEAAgICAgEDBAMBAAAAAAAAAAECEQMhEjFBBCJRYXGRwaGx0RP/2gAMAwEAAhEDEQA/APZqUpQClKUApSlAKUpQClKUApSvh3ABJIAHJNAcihNV6dRW5PhkEAxP9v71WfEWtKaW6xb5QG4gwGU4rzy9TjUuN7CTatLRoFuglh+EwfvAP9CK7KySfFFm4+1WMXFW/aJDeZEY7/4cW2gGJ/OtAuphrkmdrqoGPqVI/m3P9q7pm0TqVwDXNaYKUpQClKUApSlAKUpQClKUApSlAKUpQClKUApSlAKUpQClKUApSlAKUpQHFQ+o9RtadC91wo7ep9lHJP2rP9b+L1RvB0qePeOAFyoP5fNH5AdyKz3/APnl38XW3DdudrSMdic4ZljcePKkKCDlqxtLs1KzU6f4v09y2WXduH0Eeb2PcR+eKznV+svfkFoXsi8fn6106O1atL5B2yzGWP7x7R9hFV/UOtLlbYBP4jx+Xr/So5OT0fLzzy5MrxxWl+PyWel64NMBtWFgSC0kt3K4wD6dqzXx/wDEjahLLhTsTfvEmAWCqC0CPUA+/bvEdyxJJk+tXvwbs/zHngqVYEGIIK8Gaz/lFPl5Po44yjFRsynS+sbWtsXLLbsXLQA5Xel4Cfs1ye9bT4f6+6WtJaJDB7FxySxLKbNy+6R+SgQe0VXfEn+H0ot/QMQz7ptboBgn/TPbH0n8o4rF6LqT27hUjwrltWQ7p+pXVgQR5cMR+dX2dLrs970HV0u27t60wKNtdGjtAQyD3DI1XS3QWZe6xP51+e9B1G6rW1W648rAAMQAJZoI7jcSYPqK9D6L8ZLfR/F227joQqgmGZATAxiVjBPOKXRh6LSof+bEsZGxba3PeDvz9oX+tS0aQD61Rh9UpSgFKUoBSlKAUpSgFKUoBSlKAUpSgFKUoBSlKAUpSgFKVnPi7rj6S0rIgLOSAzfKsCc+p9BPY+lAWXVerWtKm+64UdhyzeyjvWM1nUNT1AYJ0+lPB+u6P3RguCPsmeWiKqei7tQ739QjXDjw3ufJOZIX6wMR9I9DV3rdYqea43PHJJgEwoGTABMAcA+lRKVaRSXk40umt2lKWk2g4ZiZd/42gY/dED2qBquoLlbY3nuZAUZ9eCcMB23DaSpIqPqb1y7I2kLH+mBuZhH1Rjacc4ZXBGRXPghfqGMkTMGAPMTlmgLJPccTUcfLOOXMoLRBKSWtujsh4uqSWETnaYDKfw47cd6/WaFrcEwyN8txflb29m/dMEVo9MVbcS+1UiSMmSYAGRmfcRBruvqFMEqQ8gyPI5U5W6vIcEjIyJkczVRbR58WZ17kYndUrQ2LlwnZgD5nJhVB/Eff05PYGrK7021vJC3TA3G1iR5gPnPFuT8xHH/tUu9b2NbP4V8ttR5FY+i/Uw/G0k/zNuSO8ssYqzvXWXWsqlq4QFlQ5WGYQJNoH5VI4czPYciqjW/DQ1KwykYO1x8yx6k/OfVYgTyJxxb1k3Cgfzrlhnv3BPNWei1bDg+p7/8AYNTtHmlnk5bPP9dpbujc+JJtqIRge8HHqpIPBH2kV36DVAmwAQArEmCJhivI7DFb3XOt9Nu0DBDSAZEEx6R7EZMcViNd8OsrNc00hwJ8MxH/AOBPP8LfqeK27O0M6emX3w58V3LaItws6XFeySzZUHYQw5+UsQF9DXpfR+t27+x0ZW/Y5UEeVxlkPofl/l7V4Lo9WRcto4IdG3OpgCZUEH0Plq36Z1W5YCvbuFW8X5RGVIkj0IaADQ9Cdnvmm1AYJJG503QPss/lkfrUisB8N/FCXLlpG8nhm5ZJZhBBKlG7Rm2U9zHrWt0Gs3JZ7l5knkEAk/nNEwWdK67dwNMGYJH5gwf512VQFKUoBSlKAUpSgFKUoBSlKAUpSgFKUoDildN+8EEk/Ydz7AdzWY6j8RLLqWCIgJcnBn2DLDxjy4ntNS5JGXui16t1pbKMVG9hgAcT6E+vtXm3XupPqUueJcXcZVLW4CD2BU8cemf1qVpOppcuAhjcu8296EbzJIBgHJPAg+ntVL8W6JGuPd8VVuPtPhRuMEcDb5QRjk4/eIqbtnGnJ3LXwv2WFnWXLVuwqx/oqNrtHmAWQgg7mHE/LP5ipK2WLhp3Fjm4ZEANIIHzQDDCcISwEA1QavQLqba3LVwo9sKhDvIKjA58wcfYiOe0aQaVLYW0uoa4ygS55jAG4qSD7ETAGfxVmolSbadvo+dWxs+RYBgFok7weDPfH/O1WPRtPbIV3RhvVmLwNqKhMhtykAswHaY2xzUbTFVO11WD8wMeaMyrR5fXGD7c13prGtBwqs9tHyNwWNwUFHXzBhgDI5471UWn0eVxcZXLrwSm6jFp2uNa2sdtsW0ZwCpBIZGO0LHrByCK++tanbtYlEHBXY8O21WZ1WCGU7h8wmQROKrU64qFtqkISSLUWwqkiJBClmI7HB4zUC9cfUOPKTA2qo3ExM9yWYySZJOTVFcnL2x2z61WrDFhbLC2chTIzA7SYzMZMDvUdU796kXdKyFldSrDkRn/AOaj3dQBIXJGD6A+h9T7DNSejF6dL3S2/wCDqu2WBkZ/ISPt61ylzGP1/THsa+7ZblmhZ9pM+sfKB6ZOMmubticjB/r9/WheXBGf3OEY8Yyas7Nnw1Kuu9WPmIBlRzMx8o/lIkdjUvbdDDoykiRIOR6qe4ru02ta3lZg8rggj+lOzwTxvG6kROvdBt3l3mDggXUA3LjAYdx7E+mVmKxup0d3TFFcbrQ4uKuP15U/umDXpiXVYbreDMm2xGZ/Ce/+2Mk1E1Nm24fywSYNsiVj8JBkkz6xH3odIZHDrowY1e5LjrJ33A+48/8Ak59Mma2XSvi17NxhcLPbsurqFAnzGHA/EW3dz296znVvhdkfdZG1l5smZ4+gnnH0nPpNU9vWki4r+R3IG3aRkMCPtx3rT1QyKXR710rqSvbQhoVtU4BB+ZWa66z7HA94q9tXw2/sFbbJPOFP5cxXgfTuoPauO1swEsoYb8SIn8g0/cVvuh/FK302sf2tx7V3YAQvlu2VfbzEkEgE9qy6Oh6PSolm6Wu3FnC7QB9wSf8AapdWYKVB1fU7VlkW5cVGcwoY8/2HuanUApSlAKUpQClKUApSlAcV0aq7tWRySAPzrvrru2gwg1M74vj2Y1ZVanRi5lk3x3J4+3YVjevdTsoXt2/2m4bX7qIIgz3YRiCD712fG2vuJeTTMxt27iBkuTCXH3NNpzGDABGe+R3rKrtWbd1SrLkMBnPE/iU9iK8uHDJe6bd/Hg6OMX0kcN05EuFrd5w4HkxgEj5l4LY9QDk+k1W3gUMXAASZD582PUnmM/71p9NY1GruKqPv8NAvi5Xw15ILwGEcevMcmnxLoxstrZcXXDHxXKqiXCTMIQOQQT6favVZykuLu9FH0vRXnuC5bYWwCCrN3z3HCqfU/kDUzQae+dS/iRZC+e6W2gFZ/wDGBCsPSIgH7ipHRbJtQbrvLzNpV8gXIhiwKuTyGAMfrUrXXbjWbi2tinZ8jKCxVfqUty/aefsIqW7ObnG+L3f9H0b5hfDubszwIIn3ys/lzUO2jXHbyqG5KiAIE4EnOKj6XXjT21t6hj4p8zLtMopAIFw4lx3gGPU81ZNcbIE7EIO9VnbMd/7nNVF+Dw5ISjOn148kF1IkHB9/zqX0/qb2WBUlgOw+ZJzCfjH7h/u1SNTpxslYeTPibuM8ODxHrwMYE5hXOntbaGHYlT2PoFPace+arRsJShLRudPrbGutqHjdwrr6+g9D+6fynmqHrPQ3tGTlTgXBx9j3H/M1QJdKEuh2t3nIbPDjvnvz3zArXdF+Jw37K6s9ihySP3Cf9Rfb5h+9BiGfRx5oyWih0PTmdgqLvf2EAfbso9+/etRZ0FnSAPeIe5EhBED3z2H4mgV19T+ILWmTbYXZuzO3zH+FTk/dsDPPFY7U3rl8kvwfMV3Yx9Vxj80ep8o7DNCp5VFbLHrfxE+oaEjaDgx5R/CD85/ebHMCqV3W2AHeHIlUkbj3lpI2g8ySJ7Como6xaQlbbEkf+SJ/K2D3/eb8h3rP6rUeIZjv9yZ7k8kmqSODhLJuWl8Gx02qW4u6208SO4ifXMZJipi6gGQ6ySIHaI4AAgD9Kwdh3tOCJUj+f5HmtNoespc2+Ipng7T838Mj7YwfSax6OM8ElL2uzSbf2e26oKMd29YJBmDJ7j3yM+tZ7r/QVvSYLFRIuqDIHYvGGH3Mj17VaLfNs+QsUYSrMpyD3EjPcTzzXza1Byk4MSvY5xUr5OblwdeUec3bVzT7948RSYFwM22CQOcf+p9au/h3UA6zTHcCEjjt85G79a1j6FLit5ViMgrP65z96ohohYuAJC2rTb3JIn9orCAYlhIECScd8mjd6PTizc9Ps0fwT8UXRqU09xU23LjqzMx3LtB2gGYORH2Ijirz4t+OVsbrWnh7v1Pyqfb8TfyHvXl1zXlS/hk+Zy28gBsyIB5UQYgHNRE3MwABJJgAckk8D1rbPUkTNVrbl12d3Lscljkmtf8ADPxTqNLaDXB4mnBiCw3qOJSeRPY/yqg0nTUthbmoOCRsRZMnPlIjzHjAMdiRUy/+0VXv/s0+i2MmYIgwJ9tigHieKyy6PXuldWtapPEsuGHcd1Pow5BqfXhumuvaZr6ONMVypES07TDqDEQR5QDEme07X4a/xEtXgE1MWn43/Q33/Afvj37VSZDjRvqV8KwIBBkHg191RIpSlAKUpQClKUBB6n061qbbWr1sOjcqf5EdwR2IyK866n8OPpHtrdR9Toy6hXU/tbUsBtc97cnnjngkGvUqVlGpnm3Udc7I9q2oQWwCtlASuS2LhGWby8GMleZrptaV7ds275Vme4twqBtYBVAC+X6cd8+9bjX9IVyzp5XIgkRn7eh/5jmsf1DR3LILOJO7aM5YxJjvgZ/pNQ7R5c3NuorsrNQgaYBBMgCJiT2BOT6Gsr0tNVY1bMt9tsnxHbkjggqcq0YkcfbFaW/cB27WNx2UeQDFrJmTnc5wCIxMAk5brs9La85KlgSu8kx5SRIZ2JGxTnJP88VqKx+n4Qe9s51a2rrI1xTcK/MwOwmOMjB+7A+wBFafS3V8FXFvG1v2dsuAQXcNI3je4ABZjJIdcd6otFbVLp8iagKszO1SwGTBjcoM/f2q+bRyrXrd4p4rCUkKisVnYYjc099oEc+tUqS0ee5W+TtlDrbtpSrWDIM70IbaYCkEhpxkiCTBU5giu9NahWSwAmGtbftm2c7B/btMVFFxrSmzetkhc7TgqdvKn3j3H+8UW/lyPMJxyI9Rzj+8TzVNaPM5tf58Hfq9IGR7loykxkiVMgxz6/8AMGIJSZkbl/pPcemPy7etXHTrKEXWcKzqu5FZoV8wSYjdtGYBBNd1rS3NQm9bNq0qmPEEoDONu2SDmMx7VhqTdOOmUPhoqXLh3bUAJAyxB7dhAgZwBjvzndf1R7o2jyW+dgPPu5+pvvx2Arb9U0Y0qE3HVbv0W1Mk5Elj9IiSOfeKybaR7ykoi7ZxcPlUnJ2pHP3+UdzRM9uGLiuU1spFWcAZJ4qbY/ZmCsP6sRj+2QRH6mMV8Wh4VyLiQV5Ddj2PuO/oRX3c337m1F3EDt2HJkngD/aYyaHptJWfGt1KtgCc5c8k+3oPb34qw6X0JnAe6SicgD5m/sPf+uas9D0uzp1RmbxLxzESqf2IOMzP6Gpj3CTPPJ/p/epUr6PNnzOL4o7dTqC7SxzH8gAP6VFsay14m0uN355zxPFVHUNSwlcqDENyG9QT2AB4Amob2lAAGZ/VvYRNa0RD0/OPKXk2Om1IAcmSIJwewzM/YVV9L6ubtkvetrdtu8OpAUqQBBtsMqYxPfEzVdp9a1tQGMyJVQwleQN57ZztIkjuJFdWl6g9veBBV53LAiTyVxCt6ED05qGjtgwuDbZO1nw8seLYdrtkZuAAeLbHfevBH74x6xXGkvD/AOmtgEwCSYKkERuckhlePlEEwa50eoCHxbb3AVEyhh1/Lgj9R61xp+o2NZyy6bUHG8eWzdJ/GP8AxXD+IDaT6Uo9aZ9PqdjBgGu32MSw+Wd2COEGPlOYnMV1f5S4zEOpa4FUpdtsYtY8qmBK/kJxPvXX1G5c05No2vCud8LkYjaQPMpiQxLexkTUHS9YuWkZUJktu3Ekwe8gyDP2nNDbJnUtMwtl9Tci5A8JFAIIznBEAwPN+snAoWb/AKpdus5liWY9yZmu/TaVrjBVUszGFUAkk+gHf7VqMND8JfGl/REIZuWZyjH5R62z9P24/rXtPSeopqLS3U3QwkBgQRInI/3GD2rzvofwhZ0lv/NdQdFCwRbJBVT2B58R/RRI/i7elaC6r20dQQrqHE8wwBE+8VSJZKpSlaSKUpQClKUApSlAKgdS0KXkZWWZGCMEZnHuOc1PpQHmZ6dd02oUsruJYi7bAHCk+dSCFfiD7znmqbq/Urty3tCi1aYkoVMqYwWJ5u3JI8xxkY5FewXLQYEMAQRBrJfEHwsr2yqiU/D6ZntxnMj8/WubTRORvjo8/wBFr/EUWkBfwzJkrJkbe0RwYHHqZ5vNF1NrYJEHHnX5lMdmBwfvivltGNIEATaz21R8rLAQoNwxgNAxOds/eNqL3hsypc8QyQ1xZVYONqRlpH6mYkcacVh5y5PS/k09rU2tavmWWIAAWN64BLs5hVQD6I/vVFrdG+kuA4IadjRh1HOOQOOfy9ai6HpNwszW327CpLNIVROSz8AjkevbIip76Yea/qrh2mdomXujMFfw2zGCR6Y9KUvkjN6duuKt/P8Ap8aTQm8vk5LHeGEW0EkA7ycdo7n3r61vxImmtpasN4jqGQXYMnedxW2vJyRnmRVP1HrtzUk2dOgS0hjaJCL73W5Zjg7cmo/iW9KCyDxb58pdsKpPYkTsXvtEkxmsbOuH06hvyTdF0VrrG7qJYkz4ZPJmf2h7/wAIx6zxXZr9ckbSPKGjAjiQAn29eB7xFUzfEBgpcfepbzcRwJQiIKRI2meZkHAmW79q6wJfaAIlpJCjuSfmPr/Spp3bKzv2Ul2dD2rd1QtwMQPlIEMv8Jnj24/PNWPT7SoNlq3C/VPJ92b/AJ/vXe+iXlQdqrLSYKgd2OBuPp7RVJquqkgW7ZwPqA+b39z71fZ4YwnJ8fBcdR6lbdgXc7tsEgSR7uRn0rr0ziV4YYyeCPf1HrWd8AiS4M+nf7mvpXe3B5Qn3Gf9jRJHaXpXVp2/qaXU2hcV94ti0iyYBYBQYkk+Zmk4MSB3HfKvdt22/YzBBBZwCRPIXmAOzYbJrQ6DrRtedWIg7WU5GTEMODXxq+nWNUZ05WzebPhEgJc7/s2PyMfwnB7RxUdHpw9W+/gz1q27hiqswXLQCQPcxgd677D2vDuK1tjc5RwxEcYK8cz957c1xb1F3TO6S1t+HUyDI9R655qIzj0odzmSplcEdx2r41ekFxd8BGOCw+VvQPHykwYJwYPEVb6HpBcMWB8qhicBYZoWGBJ5xu2soJAPtbdK+HFZbn7QIVQtteJYejZ2vbJA8waOCIaKtwaVsjmnpGa0mtKoLOpRntj5W3Etb/gJJhfYY9mxHxr+ksii5bPi2jxcXt7OPoP8veZAnt0lmbw1BKZLAss2YEkljgJ+8ceoBqNqNFq9AUu23DWrgJtuCCl22NuWQ/SQwwfU1LTi6ZsZKStHZ8P/AA9c1b7Laz+Jz8qfc+v7oyf1jb6zWaHoNrzfttW64TG9p/FyLVue2Zj6yMdfx98UnpNmzptKircuIWFwhYQTBKqAAXJnJEYzNeIX9Q9x2e4zO7GWZiSWPqSck1SQbNJqPiq5rtbZu6wl7a3F/ZJO1E3CRbWeY7zuPrxX6S6eqi1bCAqgRdqnkLtEA5PA9zX56+C/hj/N7bgBYz5UHsxEsewkcmv0PoUZbVtXILqihiOCQoBI9poSSaUpWgUpSgFKUoBSlKAUpSgFKUoDO/EXRfFXckLcE5IlY9GE8H17fqaxugurpmvLdV7cKNygDMtIFt92AwWZAOFMdq9TqB1Dplu8htuo2n/vj71LXwVy0eV6vqlzUbrfh+Fbt5W2JCmZz7mM7jySahabptzUqruzW7RHkXPiODnH/wBtD/7Ge3Na7r3w5dRXa0dxYEEnJjbAiT6f89cj1TqT2hbXaC6W1RlnEbQDvA4BjAHm7ypg1MW3o5wntpkfrF4WwlmyyIvDR9A9cTJP5nuaoNfprtsC5bK3bQMuVkkHE+IDkA4ggRgccVeWTbuIUuI7IPMICm7aB3HcpABvWwckESBzgBq7n6Hct6O7cvN4dsjctsz4l62CCR62kOSTycCYma0jozIaFUR2JbLAEgZC+7HIXP51d9L6iLl2xZ09tLZG+XdiTdYpJ3FsKp2wBiJyeWqiualEUKgUoT8gOQfcmT+Zq36H0h8atQAqRPzFh5WlxA2kRiCZMnEZrGyJdGq0d93Fy1et3FYEjcQRubvuB7rIkj1471G1fSUuGEAtXewiLdzH/wCh9xgzkd6i6HqzXXbYp8BVJa4wYQswCI3AEnAXP3qL1DrIclUVkVgFd+WKg4gEwDtiSImO0mVnHHjnzcul/Z8f5rw0KGGefKgOAZ5cg7SBnGfyFVi6u4GYk7t3zA5B/T+RHHapTai3bH7MSSOSZ9wfZgZ7du3etuXCSZpZ6zW9K11pgqpb2mfNbGTx84nN08z9WBiK46xYUAbYKkAqRxHaKyCvA7g4II7ffFX/AE/WtcR3uS6pG9wZKj8Tr+H1Yd+eZOS6JUd6JdjrC3VFrWKzqoi3fX/UtjsDP+rb/dOfQ1H1/S/AUFouWX/09RaJIPOCDgN6odpxz6w9WQDjg5B5x6j1Fd3T+qtph5PMrgi7buBTZu+YBVAmd8GeAwAJGBWJlGosaNE0tq4l0PuP0Z2R3AMGQQJUiMDiARV6Xot29c3XHCWlY7WUSGkglbKHv6zAXg9hUjpOj0z30u27dxUZC5ts67FYEgqW+ZkAE5g+YZqbe6rc1Nw2dCAYAD6k/JbXsEgEewgGfpB5HrjFOKlJ1+0eKcnGbjFX+mcfEPVrOnt/5ZLZu3bq7Vsr5mYkQGuEDzHOBH2Ayaq/i2w3h9GskMCLCKwzILG2IYfcVrumdC0vS7T6m+SWgl7jSblySJAEkqCfpBz9RjAkdV6WdRrdNc2wlu0jfb9ozR/SuWbJb+h1x4+EfqYr/GDSXL3ULaqCQmmQj0E3LsmfyH6VneifA13V7Vt/PgsSDtUfven9T6V7frfh4anUG5djwwqqFXlwBPmP0ruLYGT7d7/TaZLa7URUX0UADgDt7AD8qlHVld8OdDt6KyttAN0DxHHLtGT9p4HYVcUpWmClKUApSlAKUpQClKUApSlAKUpQClKUB8kTg14T8eC9pepeG0CzdI2MQAAGbLbo+knIOIHHeveKquudDs6y34d5Aw5B7j7GgPzx1nV3fEXG1rTYK+sjKn0ODW963qbly26Lb3q2mkuW3PduG2DA7kAT+o9K02s/w+slZtsfEHBaIgCAIAx96run/Dr2XVbm5m2bDcJgbYjascAiJ9a4Zq7fjZjk1pedHnnTfh7yNccKWiVtmc/xED+XHrWp0KF/DvwbGfCuAFM8gBEJ5BIIc92A5zXoFjpY2+XaoHY/8xWc+ItOiFduC2GA7iRXmx+o5ySlGk+jJxeKLlyssfgjSIFv2wF2hpWAs7XBJBMCfcREzjNU3xb/AIfht1zSgK3JtfS38BPyH9049D2q5+FLm0PCSSxWR8ogCFbuCTuAaDn7itPpNSLtpHCkB1DbWiQGEwYkV7EzcVuKbPzbqbbW2KOpV1MEMCCD6EESK6Ss8817v8W/C1jVJuci24hVu43Akwqmf9RZIAU5zg9q8v6l0EaVhbvo9ts7Lyy9q5B7rG4EcHb5h+Amh0KVbAtEeLb327iyrI5Exg7GAI3A4IZTBEETV98K9BW/duPZ1NwbFBVFG25OQJJm34YMSQWkHbtkxUvVdHuWdGNQuy/bdg1y2DFor8oNtjDi8MDeoAHynfG2qbRdB8ZvEt3GTTEeZ7ikMpn/AEto/wBW7ifIYggkrMBRp3afTvcZ0VAt1SfEW3HhMJhnQzFhl5YHyQCcRtr5610V7Fi3eDq9q4di3EaQ5E8dyJU5iDE1J1+qGw6PRWS5byG2g3EmDBvEYY99ghVyTJEm1+JdK1vovTrL+V1Yhl5yA85EiO8zBxHNZKJjejjovw6+u02jlyLQS5vRWMvN98EcBYXLN+QY4rdWLFnRILdpF3Lwq4S3jk9y0dzLH2ERRfC9+5a0dq3bUz4O9isbs3r0Ks4BM81WdO6frdZfBIexatuYQcyCQZkebMgswI5gNkV3gkopyf2RwlJuVRX3Z39bS9rLlvTjeqXWi9dK5W3IIa39IUsCoHJI45r1GzZCqF5wATHMCo+k0IXzMdz+vYfYdv8AocAATqxyctsuKUVSFc0pWGilKUApSlAKUpQClKUApSlAKUpQClKUApSlAKUpQCuq7ZDCCJrspWNJ6YMr1yxftDdbbcnfALD+9YjX6sncSdzc5IHAJ5OJECF7zFevlay/X/hgXJe15X7jsf8A5964/wDKMXcUebLjk3yTbS8WUX+HGpC/5m27je9zcoOGMLBBByCuAR2xxWt+HnnR6Y+tpP8A+RWR6Po0spce64S9bkohgSc5UxmRjy+pmafC/wAQC3at2TIFq2oIuYbAE7exEyB6x64qr8npg1xVs0nxLoP87pbllNhYMjbLgO1ilxX2XIzsfbEjsZE1C0V5dXbeze02y5bgXdM53Y4W5abG9PRhBHE4g2uq6pZtWxeuuttAVXxDwNxAAY9lkjnH25ru1mm8U27iwWSSrLG6CPoaYg+hlWHPYijoeW9e6BZ0d8C7cd7QU3EtNIAz9bztKz3C7vYHNV9oajqbKunKpaU7HeGVba/gtheCRkKss3JPJrefGHwqNdrLDO7BLVuWRDBaXMbjEIuOck5AHJEzV66zoUFq2qtdAhUUQqTnPJWTnuzYknmhn3IPTej6PpGnZ38inLT5rlwxMECZHoi+UcksfNXZ17p79StaNlUoG3XChgkBlWAxGARP/dZT4isarUgYLXLpwd4UW0BO7xFIhLUY3AzugQxMV6r0bSGzYtW2beyoFLREkDJj71lctIyW0Uej+F2t3kcXWCrZW1tXA8rMdxHcndjiMzIMVprGnVF2qIH9fvXdXNWlRIpSlaBSlKAUpSgFKUoBSlKAUpSgFKUoBSlKAUpSgFKUoBSlKAUpSgFKUoCs6l0pLwkiGHDCsynSrdpz/mVbiLdxJ8pMycdyI9eK3FdOpsK6lWEg1EoX0Zx3yXZ471/qt5XuWnueJZFxHt3lt+dGQoylkI23F3KCQOZaOYGk+G+tXLrW1ulDc5tvbMW7qnDG3jysPqtsMECRkMJvVejFAQyh0PB/53/P86oeifDlxNQGt/JuDFJkGODIjaw/EI/2rlyXXkhZZKVSX4NF8TdWvW7/AIFlDL2lY3B9I33BC4gH3P5CeMfp+iam5qbbJca34bMtwrFwXDIkWw3zv2Zmwh5M4PonU+mXLtwMI2lQpE+7E7iIbbn5VILcEqJDWei0K2lAUZgCYAwOAAMKo7KIArpxbO1kPpXRVtCWyxO4yZlvxMYG5gMDACjChRirilc1aVGN2KUpWmClKUApSlAKUpQClKUApSlAKUpQClKUApSlAKUpQClKUApSlAKUpQClKUApSlAcEVwqgcClKA+qUpQClKUApSlAKUpQClKUApSlAKUpQClKUB//2Q==;" vertex="1" parent="rwGKvkM6uw_88Vz11CZv-6">
          <mxGeometry y="20" width="94.67" height="63" as="geometry" />
        </mxCell>
        <mxCell id="rwGKvkM6uw_88Vz11CZv-8" value="" style="shape=image;verticalLabelPosition=bottom;labelBackgroundColor=default;verticalAlign=top;aspect=fixed;imageAspect=0;image=data:image/png,iVBORw0KGgoAAAANSUhEUgAAAMgAAAD8CAMAAAAFbRsXAAAA7VBMVEUAAAC8EUL///91qSi/EUPBEUR4rSnEEkV5rym6EUFypSexED5eCCGdDjd0qCgsQA+LDDEySBGlDzqHDC8mAw1FBhhmCSSrDzw9BRV4CypqmSQgAwuiDjmWDTU3BRPQ0NDb29sjMgzExMRagh8SAQZzCiju7u6dnZ1Vex1XV1fk5ORTBx1KBhonJye4uLg7VhRhjCGFhYUrBA9NTU0xMTEeHh5mZmZHZhhJahlSdhwXIgisrKxzc3MWFhaUlJQ+WhUKDwMUHQYvRBAdKgobAgk+Pj4mNw19fX0QFwUKDgMVHwdlkiIGAAJcXFxra2v1XfsUAAAbjElEQVR4nLVd6ULbuhJ2grckLAkBAoGwBAhQAgm0PUApBUqh9NL2/R/nepM8kma0OHR+nHLAlvRJmn0ke/VKtDvcGVV781+17Dk8e/7n7Ozjt2Hyw52X0PNtlQ61tPNf2rB3keA5+u/T3fO3D9av2gO59Rh94j99O/975t2dDCuMGdLu16SVj0e3vOG7M/bTV9s2LICMjk6en59PPA0978wAY/RX2/TH5+ePF7vvAORc1w2nPydnd5/+Dp0QfLh4vvv8/J9V+xczABntnB8dnd+aO4Hz58CoP51a/jk8Orod0itDAik3rBtZI9HuVZouiA4IIDtEM/cd9tPVFfGIpaB5xt/+dTMpfnqYdPBHvjkAGVLz8dqP3+4fsx/7i/f57+T+zofDoRbDbvLAR+mlopHrcJr9+3T9Fk+pQaCSTAYyOv/550QVI1edveKnfhiH0+/JD0tx/PaU/uZ4+kt5/qNmh12oQ3vsZ+u71A/DtMnJW9pJ8beXyb38+J+TP3+PpJX3jJ3kM7QYN6fXKZiXcG5uLn7b857i5Ie0j/u4maH8/j/4BrUoHwTe23tJ/9uZi5eSf67jcG7xwev0k3/nwgzEzVsz7j/iYzoRJksEIjPg6+srQ5IMO4z7Ny+dFEjy881++k9843n7YRimO2PS/ALfxbfyrtD+S5xOwVU8F1573jTO242zHuIv34+bcdJ08yF/9tfr64M0PIhEAPJNfG7aDOO42d+/Snt7y5oP817Sn/J/4mkn6z9h0U4sIsFEvyhElsL4f+lCpA0l2ypvl3eQdxXup4Cvpv3FOA6bN8L7zxQQeT2aecsJmuN71r5MYZwDWkoYNWy+wvdVJCKOZJfGk2RnigBkat7vzyWY0j+HfWmEwKCAQHalx7xffT5cqhtOi5N0YzeF948kHB+Ev+6lbTYnxpbLNZJxeLc4kGK+XpZS+t7pdCbHxl5Af7yvL8fIjKV0x36fSqTHZshfs6SrSYfRnrzmEEgxYYlczSjZpC69FHCmKbPwrSwIlj8cR8rjfXNjSuNhzOhJXnKMR25i9z44JSD2w5ip/RPQOrfajsNESE3dJwl0cq/lkfrXoqfmDH3Mxcdzc7leSOmcNz5iOFLubu7PMllzTFnWCSC7xd87M/WSTXWi2KS+mLmeKVIn1lCo2FiCqsL1SH+mfrKBsklj/Mglb3P2tpkwofQIX3yvM3Nnc5xNCn5n1u7+OzTN9S4hfoGhNROX5BQW65/bqsyenm3X5g2/8WGe4UCAOScpkMWmuyTmm2sEF6SK0JVmNQbW8AcUSP63h5en11+yRdK/mTrzZzwpuYRxyLVjI2G8uH8jgQ87vx6fXnLXYQcFUqxIM15cVPoL95eu+o7LwiyKOteFr4tuMMK3SUdVOOHiHPO68BUpogEv6DYOE1nxdGNhdIFXiiU552LkxmUmElv38X+UvnnU8Qiz6a7wl8MwsTwm/dh+MMWSnNSPil3rgCLxD7yHfaIztmspE4VpdspGCePE/9k7Dm0lT1x44mzTXlu+GIaLN8mUH1Nzxtj9rk4AqbNIJdlj3Ezn4qpptyxMcDG5binU43460CtSurD1EIxrwtWlvYSwn0YeOm9Wkxt6kJZs0Cd7KrXTJqQBEC4yO452dYGLuETKlzCcpqpuaWrB94zdrVk9DPezCIdmnoA/fU4B2c3/nvmrE7qpjOsTZtk3Qskcbk5GZRjO3aSjfNWZxmG2Hg8yr4tACim51zy+3tfu55xVElfQBEVwTg27MfFSsvHRzJFROrgiQnRLASk9K+Ncx9Nshb9QApI99lDi0FuiyTJnyvqlb+K+xE8sduwuCYTZ8TbuWyqKUyhTHZR4rwRyr9sw4XEG45dhYvJGC0/6U50EwrndxiGJm9+zZ3WcGYPA8BUtCeP9nIPvVdsIaZNZozsaIOcuSObi/TyONWlSUKDYIg3GuJ8L1Ccrmc5x/K1rgHDl7lk1GrKI/A3BVKF5RXgbdpYxF4Sf61ogpVNiFx6Ip7kAeZqij0MeQQV6GB8/ZH/dMzJ53iCPme0agPB8quxcERTOFbsH1cUhyDhgVnXYf2HLYdfbtWcLJI8G/u/Je+zYtDyXcgpDrowUeKUJqUNljv2r3XIkSmTp1XvKGXPHAOSMsYi9uR42i2ldkhclFvJzctwh7hcZFXP8t+wrZvNmWhEW13SKoMVsxaVFEY3GPeGPYXiFv2ToioVjRwYgPH3oFDgNWfqtA+2LWEqYwiWJ+4UceLLdVmKTciJRTYZyU55WYBgStr1e3/hrIock9Ks04DhjTRw6SYiLczlJqQIZ8eC/suW1xOeKeWVqOsN74s4BU5RO2yrscxN+KA8bSU+PuAT+hSsHCgkT8fkEKOuR0pf8T3xAb05TVSbeFBx4nr3suOMScuTGw0Oy7WMx3ccpsQr5tnp0WnKmcjxF9JJAPufrsbT3ffLm0FMy00z/7b/teQS99JmI27MxEcvGp52lvQILUl2BAilE8HUcO0ZqwyaRE8fIyoWHjSc6pGAtbBdhQIowVCJRnCO+YoZaR+4Rfy4ZP9oC4fmFL07cnndmicQZR2Jeso07tAUCyv46rnkZSyR4XFZDzGkhFoQqc/padnlFek0EElV9IOQMo/TQPqMjpgrPABLvatFJax2rw1Zp6gSjCRzNM7zwiK6gg926pDV4QldLZEkIRjDM9x8xXrqm8UORZHra27t3yDPZ7Sy3vdWf7O0VnHdODVdXnJm/+jh10ibxhB581UVOnZCH7C26ZlpXLvu56LPz5pATwSwslOyNnzCcsu1KF0zqgBzxTl+ObbOhsbVqt1TsYdy8eWLvPNOD1RYww36/W2GJicpQjIjEmIziBbyiKfjWAtmV5tC4r2WXUE9GX2TxXjQ95fovayD13TuhIVPVgi2jMzKl4kDwJyVSYpmBJHzCON77dW2wVrhNZ08mqzTul0tMlWBbAqnXh6yG/ct1v5nWo4Uor4R2Gl2iR8IqDbMasyYrlvZOzk2l6jbnR8qq6V9Pnavrm+M3ZW2KfFwFWlJle9icHt/c3H8HLZoHaQMEOXghpAPDEEhId3rJqkhBc6rEoOwSRyBlMSKjx2YJImweO8hcnCb7i2DDqkaOxREIu6NJ0tGCSVEkOdefXndelW4r0ZfOzbRftNuUZsZ8nsf6jJVgCz/dTyZLe1/U0v53oIenl85kMoGzYxBXbkDq9Z2fn8neSVpf6y60an5CrYX2/GUFYP9plUcVIIl2dDvjczC/0AgC36/l5PuB3+quOuKwPyFoD4Q6kYHT+qAWMAwl+VFrY9OpnY+2JxFtgezcmTstaXshUlHkFPjtFSco+PGNqkCIo4IHBwfYb9skjHyTdZ2QfLIRWnZAduXlOD1sL/QaUUpBa3lwuA3/OF/TwchWpTUWmvuxOr+2tjY/PxbaKUln9boAORJavTzcilIm5qP1/agH/j6IDDBSitr8+W4vnY6coqg3OBRBZnRiHqQFEBgZ8uaXA5WJg3KvbLYCCxzJK70fxWr4QnOJcAtqg1MZCREDcgICD9qttRBRlPTO2Xe7YdpW/J1GoVa2EOEWtDZkiWBiFCMQgOO0he+aaINvO2scKZJ8rKvoEgZ+V5IjBjlsAgLOwQ3Q1UhGtMyeOGjZ40jea+VvtfHNGDTmXZAYgJT8sU1u/gafugUXHMlQC46n4EcDYVE+a/lED6Q8z3dKLEfS3Tp/xkZeCa/mAmqFatpvrEMkmmCQAUjpUa2RY4xKCdNzW5BkoIXYXqVbF7bXX81YdUBGNjgO+UOXrjiSty+N7a9BJMNqQDijz5O6oRRYlPjRUsCGeWi5JpWA8GKOdXKqA4DD23ZfkdLq6pKz4EPT/2cVINyRIoUqXI+EnHEAIJQQTqjxA/RB6kUaCPduN6gugMGU0cB5SQLAASQSfwH0geYP9UCYxbtii8PbdmaSCHq/bYpPBIan4tgkEC56KS0XqV4FvdFxEuY6eZ1C4gPFSBnCJBAWAVonWg8OPZW23JAEkv+xQfUF54ywVCggu4YFCSRDqKCeCxJRR6RESeEA8Dvh+lJAmHFyiTbt1xDvJ18TezNFknkZrREGJHj0Ez5gCggL/aDb3m8QPqmXyjg72eXX0DU9Jfxk8AgugQkg/C6AFjaGFhZyYLS9pQ09FE1EW0RYCHfNgEVHePAEEKZEMFYPtjQwUhovG6AkTr7izHI6wPjMH5QP4KqEAMLObCPKUFEf2LR2a5FPuGF+VGvrA44L2HYGf3cBwsoaVYc6UEQNTqcby7UIBlvSEHAQBb02vRiMEIUSAewok+BAmAH/uyHPZ4MSVwj93l7rLvRajRRQrdHqLXTXVn+YX0toTVlOKLfQuDYOZLd4RTY6eBDHhQ42Ly83f/x2emdVZnloBKCXhuFAmH1yKgIJLNjDgcYbg16v1eqlSyXLsINlaQ5BDBBNxOFAmDoUeN33cW3u/VhdO9zYOFybdwm0rw4ajIUy5ultSLpJYhS/3Atn2JBxICwj3QULHPTQKPppu1VGPGsDW1HQkyV0gmVZFAOnAqNAQ9keCMt+tssAL2LsplkQX1TkfhB0zYmpS1xn+lFLWPMDaO9AsWUPhJm+3FUKWkJgJqfxMmaO+EHXwNiqTCqHuyz0c1h2AK1ULMCFA2FebmH6+j5i320vUFZV0NCqCtKBKqZB6KTHHob6C7PkcSDMO8yAJHYRYiN2dcZhgABnNDBY+kFL2JuHxfJB/wfTiIS+L4H4QQsRVuuG7AFtx2jXI18U0UdYyWPOcG4wd1cPZC3w1VyFlwa6TAZuNEBe83QBLLgoouxbHwSBD70wayAjT0+USyogQROFdHBUh8S73Bi0geuAGfIoEMOllmSQQESCqRTbvEOktywRsYUBoa7NdMKR7HVV0ZMhMoUCRNyXhFhbCJDdM10bdrs8A6KwyQ9bGCnpvFCkIkIF8k3XgC6gbZ5V+wVJpkHvhypXcypADNfvkkkZbCwL0suyd6OlCAuclXSnPxk6MhXOOCVzItHMPHUM3xmMth0NkJGp4sRlc0gRQmiCWpGyoDINSSCC/tieVwXHpmNwtyW87bSzaooM7iZOi2grDSkgYF8dtKPEQZCBOKZtxWg7HrTUkA8rQzIbzZeMuF0cCODzcSOd+0ASoJZ6uSQh0u0g79jrYEmKlHHQg3NzN8KAALnLWCESYyauCyKqEjf+yl4HIni56NuvwaDYRwQI0Oe8wEfUaVSGQTMSuDkdeT17n/PEZTkLPmSdCxVIWXsJshwNb7aRwPed1xPa7nBfCkJgRwZSlizCbE0A1vHAVeqkfQJDAykDMhIXe8IkwlGdSUDKq3gFDw5yqzuzJkCA4VhhRcqcljgLPtC0tyIQbrmLvoYPPD33pK2o2ysBYRMp7gZBMAtAdtlvx+K0Q+1aYWfNDIRLG0nOQJvhGwRyQowWQF+vsLNqEYgVV5AVnEl+y51DyxoA4QuiZNpKsUOk9/QUAGY/rDQT+btKsh8K9qMSCKsvQ6yId5nQjKoIC7Y3L5V3gdb/XAJhv0L4ebYtDhWiOhgLKsarFlXApocMCMsY/kBUN38aS4sagQjhrSpLWsRTkOqQsnIvyzN4kNUxa+g9hjHDmhYtIKsJJ2mUA+FuCDbpMwGJBP+hirgogGCOEDB/hjkQVmGGWukzAREdKxd/n1EBRBG/NSHRcJEDYWZWF+moHEoVXpciwBWsLZZNQIAAJ+tTDoRlQ5bVfoBsqGKgSCngCgKYsTRWRAC8lVEKhLHIAdIOMFEqWCiCE1CtjUIhouwLmt9JgTDDdxthEbA53PeFmiVxV+5ssJjEA6b1UQqE5aIxoQKrJ52B+EpSXilAMDbBdgRmegvc7pXnXDAtAhSBs/AMkMSC65JwM94wuD8pEBZ0wIQWYFd36xdLuzuWnXPHCpMTwOv7lAJhSXVs78CqQ0cbBc8jukWUSi9irAfipUCY6YttwwbINLsxiS8qQ05Olajl5tnEZlkCwo7mYUDgaNz2VkTVZDltrnIekT9SK4LMuBjXchkCVnlZzK19I3B3IvIXmqQpEI2FIu5zh4MuujSN/amGBvAvsdGB+JZB/Eo2hvWSUAySk62lIpy4QF4CIfLPKZBb+lFfzNSMbdOgNX2Oxg6JGEJHjtkEJQd9TIEwKx4xUeSJtRM5fo0uC87plC6rKVtpibU5ivSHwa0LaGupIVHZDLfbXLryZkbrxgOLfkMycBShCiVRZmvxEhrFjFcrSg/MJyaDls0x74Nl/TZVcKgmUiAUdaRA2OFPhdsDdUgrJiSRKfPH6FBbXtRTar4Utx3GlTN/hBtbsvkgpr4K0p8q9n21cCOtMl1BqlNXBlTBNl6uJ21rOLrCQ+QpHomfiAP09DlvP1oQxdXlaXehkcJLdEKvfbguTfMYrV3zox5qFUgbBur1b0U4iDGJpHQioh5krYEuih+IFe/bGz0/gMfeg6gxmBexrLcbSlHkFlFQI0nVAOysnQIIETEltdpBt6FMZRCIRaLowfdkthtd0br/Pd9u+flJ/yAIaluHtMgT9haUWWcsQMf3lmDQaK9mWNvy2UCzIbTEst2xUg5bIlbbXRnPb7Tb7Q0ksw9J8MpgOP4bj/2yBLuQ7oz0YvT36cZCK4oivzfoSne3/KAv4cjGULOsDpZ7BI0K5uyIA+FH3IDWMVZQkKQph2VztOBWKl8QMCyg8fQVJHrY74D/IgelrMlcfqkc8LakAw5EKB3aBUD4MVB+jtlQL0WTXJ1PEHFsTk9MAguD+09IhvIsO0vqymcEbcn6AF8lJHlNpN+C+vWDAKT8bHYu5GgPT09I2JVEYj7ak9Hm+umYCZPt9FCcaJVeSAUDvKLmdzqnVNmuiegz0Aj5FvdUreeHIaJewRTryf+KpdpSwQCs1UqEp74MjyT6pgAUiNaPTKk8neHzgvuxuCWVEg76m+z2hMVsdITFIgGti1oVFaNIUQ11gdb2+JS6nEgm59waZc1l1JZNHGQBy4s5YOGZ/BV7LzPqEkMo8hvL8skhhLBooJ58pUaPE3IPCxK7RAvP4GdtCiovp0nMqWWTvHSQWHxJKK07j1oH8lPUl45vpefEox5+1NLaSO4LQqtdvGxdVj3wkL4ARCqKn1dai3qaTV2leoiwTAnfTS5Sv6CASF+aR7IyuBOaU5XCBjxmT1oHvvjckAQi3JCpLkjWc4vg+kqlJlhc4Dd9NkNiKfrDjkKBP7FVfOLYcaWiG+Rwhu5uK3H9NB+tE5iEzPfh28v5CqRibJLFpb2jS/SRLmggkElWaHNDLmzOyLmWtmhLYhL9fAg6Uff1PXBxnm7PI5cMYJVFNiSFZQ0XksBCNklOiUCAwaXN4qqRQCxLbwVEWF3TIUVYbP9VBwTsLX0FuCJtnOvmWUNwcY3H6aBxNtQCKe/63DBcQCGZSVX0utyOOf8iJKm0QMq9ZQBSC8QoyztsLawYRu60NFK+6oHw8Kn5cIHoTWiEnB5IyewWNg7QYabPCLLyAYtqC/HEzczi1ybXWq7IXd0AhOtEi9oTWE7g9SoC4UOzqawoeUS+C0k9h8jCpxZiSLjMopLxCwSqVb1NWYYgHwXXHKi0OVkMEhmVKrVLXW3B6TVg9SuXT6pAdh2WGmqTzUpMwnnd7uAS1+zKAWrkrK7LXoH8XuWgC19TuwUpJ065rQYBwpjEZtPCJanikPD37RaktH6V2xIQIEy5W6m4ALg6FYrOuV6we7eU1cqJdgQIvwLbpgAReggV2J2xuuUxXi5c1Du2sPPsbGBYbaCKBEQPnO4tzgbGFsRSdnOfXb1RD7thgD1tVWkGHSPbohs+Lm752i1IaZep11dgQLh3ZbNxhUi0442T3F+3lBOljERmHwHCLWArZSvUeTgFG0t7w3Jn8dJr+evABBC+t6yOUApBFYuiG04gl2RX11zWOth+xZXH5W22iuirXhq/R8BxlF6A5QFxviDYBVsoEH5M1KqQUizl37ZEAi/lsZPb5UUr2FdJ9PdrWS1JJMYhVqzSoUJ+2Sq2B5x7lB1QINwpsanKD+TUgPkzEdLlgnZWGs/koldnEvc08pOiFmfY1RDqKV4+xGHIqVYbMQ/MU3TEprtMLS6mwW7+7fr0Zd3RslSOhR2gUnCUIg7/bg8BBCQUTTEzvIpos4t9oyeDoSS+LIKUIGTjeE0uSMOZlBxRDnWwtgzrzmrZxX8t7BpTMxBoPhCXYpNAQGDeEGfHLqjLaWW+22vU8psP/VpjcIgX/h+YgMB7ealvD5FAwOZCL64tCb0dG6BZHZ/On4636duZfhuA+K0yh1LhunWYvtLGyG3vm6VJL+OFe5LJT3dogMBkiU41RFU+fSaQlgsDGGSmv36qA/IBtLBGlxsrpw2dSafZhfSY5sNvOiBCJm6bYhRDQYkN0Q6ZWBCt+/KbFohYaLNRw8t9K1wBLBOl2qMF6Oxov8ulByIi2Wwj+tpwMZkdUZlwQXfqvy9mACJ9I3hlQy6crlppJ1FXqa/1A6lgxPBFQROQ+kj6nmN6v29WN52WiEcLxg8cHqwnaiSh8fq27l7jcQtea540PZBsas3Xmu2ASJ9Iy8aWfrNuYaGNfZWtpMv5jcFyDX7HLYoaW4ONU0Izjtu97Nko/eCbbI99eodPpKlFQ2ZaPxw0giBQS5XS6nO/1SYunT5YP12bX0VKRNDrvN2B1D8gJWk0rXZbWH2/sP/9rTV7YWf1QUQrIIn0sv1A5Wa3YfFphRRLrW1ZYGjzNURrIPJHEQlawQQ0iUU9i4bQN6uP0ToAqdfPjRtsw+JUHqTAdD7u2W41HIGY7tXcdPocTLHBtAan7Td1nYGA5LVKLkHGEgl2Ho0th+WmqgREU+Zcoca0pjttY/kZ2qpA6iPieuaKJRyUM3Nn0uQzA6H0o2tupCDCmUHC7e8PpD5CxVclILi/fzd0H1QVIPiiOJ24YISeV6A/sffuQOqjP0r3zpe31PAi/zNX7pgJSOIGP8sjcL84BbuR3f5D5u8EJJHEsnp0vCoaO/7kKHPfB0hitEhQTp1Uicro1WHMCCRZFVGAjR20uxzXO7O3q/4BkMSpF+5nt7a3/IboJD+72FX/BEgiwY7gARqbc6EJe2wJDu+Fjev0z4HU4ZeE009tGxdF+v6SuxpH6H2AiKcDDG6JH7WF9Gkl/afQOwERkaCRPAYjGIjelEVgwYbeC4gQ8fa8H7jr7gcN2VOvqgBlejcgivt4Osg+VgcYI6gtr8lBrWr2CELvB0R1Hw/GGwuN9OBfFAW1Rq+rRrPcnEAtvScQ1H38sb2+Oh6vo+HFd2KPjN4VCDzsYCZnJ1BL7wykvvPZjCCnWQwrhN4biGUkz/v5ftyR0/sDSaAYV8U2fOhA/wJIwvW6L/18nNU+ROnfAEm0yvAnui4nt8RHsGelfwUkpQ/Do5+lQ3x3cnE7u5FL0r8EUtAopX/ey/8BR6+GpjJzafcAAAAASUVORK5CYII=;" vertex="1" parent="rwGKvkM6uw_88Vz11CZv-6">
          <mxGeometry x="69.26999999999998" width="25.4" height="32" as="geometry" />
        </mxCell>
        <mxCell id="rwGKvkM6uw_88Vz11CZv-12" style="edgeStyle=orthogonalEdgeStyle;rounded=0;orthogonalLoop=1;jettySize=auto;html=1;endArrow=none;endFill=0;" edge="1" parent="1" source="rwGKvkM6uw_88Vz11CZv-9" target="rwGKvkM6uw_88Vz11CZv-1">
          <mxGeometry relative="1" as="geometry" />
        </mxCell>
        <mxCell id="rwGKvkM6uw_88Vz11CZv-9" value="" style="fontColor=#0066CC;verticalAlign=top;verticalLabelPosition=bottom;labelPosition=center;align=center;html=1;outlineConnect=0;fillColor=#000000;strokeColor=#FFFFFF;gradientColor=none;gradientDirection=north;strokeWidth=2;shape=mxgraph.networks.pc;" vertex="1" parent="1">
          <mxGeometry x="590" y="273" width="100" height="70" as="geometry" />
        </mxCell>
        <mxCell id="rwGKvkM6uw_88Vz11CZv-11" style="edgeStyle=orthogonalEdgeStyle;rounded=0;orthogonalLoop=1;jettySize=auto;html=1;strokeColor=default;endArrow=none;endFill=0;" edge="1" parent="1" source="rwGKvkM6uw_88Vz11CZv-7" target="rwGKvkM6uw_88Vz11CZv-1">
          <mxGeometry relative="1" as="geometry" />
        </mxCell>
        <mxCell id="rwGKvkM6uw_88Vz11CZv-14" style="edgeStyle=orthogonalEdgeStyle;rounded=0;orthogonalLoop=1;jettySize=auto;html=1;endArrow=none;endFill=0;" edge="1" parent="1" source="rwGKvkM6uw_88Vz11CZv-13" target="rwGKvkM6uw_88Vz11CZv-4">
          <mxGeometry relative="1" as="geometry" />
        </mxCell>
        <mxCell id="rwGKvkM6uw_88Vz11CZv-13" value="" style="shape=image;verticalLabelPosition=bottom;labelBackgroundColor=default;verticalAlign=top;aspect=fixed;imageAspect=0;image=data:image/jpeg,/9j/4AAQSkZJRgABAQAAAQABAAD/2wCEAAkGBxASEhISEhAWFhUWFRUQEBIQFxISFxcQFRIXFhYVFRUYICggGRonGxUVITEhJSkrLi4uFx8zODMsNyguLisBCgoKDQ0NDg8PDysZFRkrKy0tKysrNysrNysrKysrKystNysrKys3NysrKysrKysrKysrKysrKysrKysrKysrK//AABEIAOEA4QMBIgACEQEDEQH/xAAcAAEAAgIDAQAAAAAAAAAAAAAABAcDBgIFCAH/xAA/EAACAgADBQUGBAMFCQAAAAABAgADBBEhBQYSMUEHE1FhcSIyQlKBoSNikcEUcpJDsbLh8DNEU4Ki0dLT8f/EABYBAQEBAAAAAAAAAAAAAAAAAAABAv/EABYRAQEBAAAAAAAAAAAAAAAAAAARAf/aAAwDAQACEQMRAD8AvGIiAiIgIiICIiAiIgIiICIiAiIgIiICIiAiIgIiICIiAiIgIiICIiAiIgIiICIiAiIgIiICIiAiIgIiICIiAiIgIiICIiAiIgIiICIiAiIgIiICJ8znT7T3r2fh9LsbQh+VrE4v6Qc4HcxNHxHa1sRNP4zi/kqvb7hZjTtg2If96YetOI/8YG+RNYwPaFsi4gJtCjM6AWN3Rz8MnymyU3K4DIwYHkykMD9RA5xEQEREBERAREQEREBERAREQEREBERAREQEREBNI317Q6cGWqqAtuHssPgRyMwjH4ny14cxkNWK5jPud+tstg8BisSnv11nu89R3jZKhI8iQZV/ZvunVi3OJxH4tdIRK639oWYh1FtllvzauCfEnXlqEGyrbe2NVex62J1U/wANhVH85yN3qin1POTcD2JoNcTjgCeaYassQf53Jz/pEuVaCQAdANAq6ADwmRMMo6S0VfT2R7KUZE4qw+Japf8ACgnNuyXZR5VYkelqn+9TLSAHhPsgpjHdiuDYHusRiEPTva67V/6OEzX37Pts7ObvcFc1gGp/hLGrfLLm1D5cXoOP0noYicHqB6S0VHul2sup7raCkhTwveiFLKz4X0j/ABJp5CW1hMVXai2VurowzV0IYEeRE1XfHcXDY72znXeB+Hiah7Yy5Bx8a+R11OREq2rEbU2Fdk2QrZtDqcJf/wCmzLwy8xlqQ9BRNY3R32wuPHCp7u8DN8PYQGy+ZDydfMTZ5AiIgIiICIiAiIgIiICIiAiIgIiICIiB1O9WyRi8JfhiQO8QqpPIPzUny4gJQu7G+WM2M1lDVK6LYK76rSVet1OXskdOY4tRll4T0e0p7tp3UoVDtCr2bWsSu9eavmMg+XRvZA05y4N12V2jbKurVzjK6iR7VeIYVOp8Mm5+ozE2PZ+0qL146LktXlxVMrjPwzU855UzrKBeHJ/iJz116eUkbt7TxWDvF2GsKvoOEAsHXPPhdfiX7joQYg9WxNH2X2i1PQr24exLuTUjIjMfErkj2T56+XUwMbvrirNK1WoeX4jf1MMvtILDvuRBxOwUDmzEKP1M6LG73YZMwnFYfyDJf6j+2cr+2x7G4rHZz4uS36Z8pmrSBvWyN567Tw2L3bH3czxKfLiyGRna7Q2dVcjV2Vq6MMnRwGUjzErquud/sjbT1ZK2bpyA+JR+Unp5H7QNE3s7NL8Ke/wBeytTxigMRfV14qLObDy5+TSduX2qkZVY48Sj2f4kDJ0OeWWIrHLXTiGmctfD3pavEpBHl0PgR0M0/fXs9w+NJtQ9zifhvrGjHLLK5B746Z8/UaSjc8NiEsVXrYMrDNWUhgR4giZZ55wW1NpbDv7qxQisc+7Yk4a4dWqf4Gy9OmYWXFunvlhceuSHgtA/Ew9mQceY+ZfMSDZIiICIiAiIgIiICIiAiIgIiICJ8Y5ayqtv9pmJ4uHDVIlbZmm987C69Sq6BGB5q2ZHUQLUscAEkgAaknQAeZld9oO2dn4jDW4Xv+NmyKHDjvOGxGDKxbMKRmMiM88iZXuP2niMQc773s8nPs5+SDJR9BOFaywQMLsKvTjJY+A9kfbX7zusLh0QZIoUflAH6+M+VLJVYlRlqWS6kmGuSa5BnrWSUEwVyQkDOgmdBMKCSEECTg8Q9bcSNkevgR4EdZtGzdrLZkrey/geR/lPX05/3zVUEzKIGy7Y2PRia2quqWytuaOM9ehB5qw6EaiUxvV2eYrAt3+CNl1KEsFQkYmjrnWR76jy+o+KWzgNrMvs2ZsvzDVh6j4h58/Wd0vC4BUgg6gg5/oYVVG5PauCFrxpBXQLikGWR6C5B7p/MNPWWxh71dVdGDKwzVlIII8QRK/327NacUWvw5GHxPMuo/Ds8Rag6n5gPUNK72PvBtHY1/c2oUGeZw9pzpsHz02clz8jlyGnuwPRETXt1d8MLj1/DbhsH+0os0dT106jzHlymwyBERAREQEREBERAREQPjCeeswhsqZeJONksrJ4cyjFeJT8Fgy0b6HMaT0KxyErrfndI3lsRRpdzdNAtoA/QPl168j4i4K7uwvAAytx1MeFLcsiHyz7u1R7lgHTkw1Gk5JMOExj1swKjX8O6q0HhdQfcsXmCDyPNTqPOXZSoXvKyWqzAbiyL0ueSW5cwfhsGjeR0lRzQyTXIqSTXAlVyVXIlclVwJVckpItclVwJCSQkjpJCQM6TMgmFJnSBlUSThb3rOaHnqyn3W9fA+Y+ucjrMqwO+wmMSzTk3VDzHn5jzEg7wbv4fF1GrEVCxDqAdCrZe8jDVW8xIWXLxGoI0IPiD0nY4XaWWlvLpZyH/OPh9eXpykVRu9252K2SRiKrWsw6soS5SEvpZjkqtlowzOWmmvJZN3X7VsXVYoxNgxNb8jkqPpzyyA4W8jofLUy5ts7NrvqeuxA6OOF0ccQI8x9855+363UGzbqmQ51uWZFbVhw5cSE/EMmGR58/qFzYftK2Y4B711PVWqtJHqVBH3mwbK2zhsSCaLlfL3gNGGfLiU6j6ieccNdTcug9UzyI+nX/AFykjZi3UXLZQ718OeoY+HQeuXl4xB6ViaBux2gq+VeMyRuQuXRG/nHwHz5enKb8rAgEHMHUEa6SD7ERAREQEREDi4kS2qTZwdYGgb6bnLiQbaslvA58lsA+F/Pwb9pWNF1tFh0KWLnW6OM81PvV2IdGQ6ZjkdCOhnoW2uahvjukmLXjXJLlGSP0YfI/iPPmP1BortVRlNlQyVRndSSWakcuJTzejP4ua8m8ZkrM6o99h7cjxVW1nyzU+I6MpHqCD1naYd1tBapQrgF7cOmeRUe9bhh1Xqaua8xmJUS65KrkKlgQCDmDqCOokuswJdZkmuRKzJVZgSq5JQyKhkhDAkpM6SOkzIYGdZlWYVMyqYGVZkUzEDOYgZsNe1fu6r1rOmX8h6eh09Oc1/tB3ZXaeHAqcLbUxeovmAGK5NVYOagjLXxAOonegz4y65glWGgYeHgR8S+R+x1kHmjaWAvwtpruraq1dcj1HRlYaMvmJLTeUov4lZZvhKkAH+bw+gl+bc2NhscncYqoE/2bDNfa8an5o35Tz/MAZWOK7HcaLiq3oaOa3MCbMvlNQ5t55gHy5RRqOAsx+Oc1U0u5P9nQDp4d4/IDzYgT0tufgmowOEocZPVRVVYOeVi1gMP1zmi7NwG0sBWtGCsqZCAhGMUqKzlraBWPa5e759eY2/dXYV1LPfiMdbibrFCsXyrqRQc8qqV0X11OkarY4iJAiIgIiICIiBwdZHsrkucHWBp+9u69eLTX2bVH4VoGo/Kw6qfD9JUWLw12HtNdgKWIQwKkg5j3bK2H2I/7iehbEmub0buVYuvhfRhmarAPaRv3XxH/ANlFZ4PF98dABedTWMlXEHq1Y5Jf1Kcn5jI5iTcPYGGYOY/QgjmCOhHgZru1dm24aw03LkeakZ8Lrno6H1+oM7LBbRNhHGwFxyUWOQq39Alx5Jd0Wzk3JtcjKjvKzJNZkDD2g56EFSVdW0ZXHNWHQyZWYEysyQhkSsyQhgS0MzoZFQzMhgSVMygyOpmVTAzqZkBmBTOYaBnBn0GYg0gbY29hcKM77gp6Jzc+ij94HasAQQQCDzB1BE4WbZTCgG+0Cs5AGxhxj0z1sX7jz6VXt3tRtbNcJX3Y5d7Z7TH0XkP9azRcTirsRYDbYzszKubknmwEg9WqqMARkQRmDzBB5ETIoA5TjQgVVUcgAo9AMpzkUiIgIiICIiAiIgIiIGN1kexJMmKxYGt7xbBqxVZrsHmjj3kb5lP7dZTu29j3YSw1XAEHPgcD2LE65Z/dTy8+cv50nT7c2PViazXauanUHkVboynoRAqDA7S90WPwsoCV4h8yOAcqsT1avws95OuYmw4a/MlSCrrkHRss1z1BzGhUjUMNCJre8Gw7sFZwv7SMT3VoGjDwPg2XMfpMWAx/AFV2IVc+6tA4mpB5qRzsoJ51815r4TSN2rMkI06rBYzi9lsg+QfJTxKyHlZU3x1nx6cjkZ2CNAmI0zq0iI0zK0CWrTIrSKrf5k/vNe23v1g8NmofvbPkq1yPm3SBuCmdNtve7B4QEWWhn6V1ZM2fn0Eqjbu/uMxOaq3c1n4KswSPzNzM1cv1Jz8SdT9TA3zbvaXirs1oAoTlmNbCP5un0mmW3MxLMxZjqSxzMm7B3dxmMbLD0Mwzyaw+yi+rnSWfu52S0pk+Ms75ufdV5pWPIn3m+0gq7ZOy8Tim4MPS1h68I9kebNyAlqbk9lxrtqvxlgYowsWivVQ4Oal3+LI65DTTnLFwGza6lCVVqiDklahR+g6+c7TDVZRVSIiJAiIgIiICIiAiIgIiICfDPsQMNiSO6yaRMFiQOk2tsyq+tq7UDI2hB+xB6EdCJT+8u71uCfXNqmOVdvn8r5cm+x+wvN1nXbRwKWoyOoZWGTKwzBECjsFjCnsniKZ8ahMuOqw87Kc/H4qz7Les2zZu0Q/CrFeIjirdPctQc2rz5EfEh1U+Ws6bevdmzBtxLm1BPsudShPJH/Zuvrz6VcUa1sPNcjYya++qkrYhGqWD5hzGhzmkWMbgozYgAcyxAH6zWts9oGGpzWr8Zxp7Oig+Z/aVrtXbmJxJzttJHyLoo+nX6zrc/wDID9hCtg21vZjMTmHsKp0rr9kfUjnOk4ps+7PZ9tDGZMK+6qP9rdmoI/KvNvpLY3Y7MMDhcmdTiLPmuA4Afy18v1z+kgqHdzc7HY0g1UkJ1tt9hB6E8/Qay1N2uynCUcL4gnEWDXI5rWD5KNW+v6SxasPyGWg0AGgA8AJJSmQQ8NhFVQqqFUaKqgKAPIDQSXXRJC1zIBAxpXMoERAREQEREBERAREQEREBERAREQE4ss5RAjWVyM6TspwNYgdHjMKrqysoZWBVlYZgg8wR4Sot9d0bMOtr0gvSyuAvNq2IyCnxXPkenXxN7mkeE+dwvgIHmfdrswx+Kyawfw9Z14rR7ZH5U5/t5y2d2OzzAYPJlq72z/i3ZMc/yryH3PnN8OEWfRhsoENKZISqZ1qmQLAxpXMgE+xAREQEREBERAREQEREBERAREQEREBERAREQEREBERAREQEREBERAREQEREBERAREQEREBERAREQEREBERAREQEREBERAREQEREBERAREQEREBERAREQEREBERAREQEREBERAREQEREBERAREQEREBERAREQEREBERAREQERED/2Q==;" vertex="1" parent="1">
          <mxGeometry x="150" y="209" width="65" height="65" as="geometry" />
        </mxCell>
      </root>
    </mxGraphModel>
  </diagram>
</mxfile>
